<?xml version="1.0" encoding="utf-8"?>
<!-- Generator: Adobe Illustrator 16.0.0, SVG Export Plug-In . SVG Version: 6.00 Build 0)  -->
<!DOCTYPE svg PUBLIC "-//W3C//DTD SVG 1.1//EN" "http://www.w3.org/Graphics/SVG/1.1/DTD/svg11.dtd">
<svg version="1.1" id="Layer_1" xmlns="http://www.w3.org/2000/svg" xmlns:xlink="http://www.w3.org/1999/xlink" x="0px" y="0px"
	 width="1600px" height="1200px" viewBox="0 0 1600 1200" enable-background="new 0 0 1600 1200" xml:space="preserve">
<polyline fill="none" stroke="#000000" stroke-width="18" stroke-miterlimit="10" points="1689.795,-596.373 1689.795,-680.236 
	1681.033,-680.236 1619.22,-579.236 "/>
<rect x="1552.22" y="-596.373" fill="#FFFFFF" width="329.511" height="83.137"/>
<g>
	<circle fill="#231F20" cx="-4374.965" cy="342.002" r="17.135"/>
</g>
<g>
	<path fill="#231F20" d="M-4406.503,395.529h-26.452v-58.515c0-31.017,26.427-56.25,58.91-56.25
		c16.565,0,32.457,6.712,43.601,18.416l-19.157,18.241c-6.175-6.485-15.085-10.205-24.444-10.205
		c-17.897,0-32.458,13.368-32.458,29.798V395.529z"/>
</g>
<g>
	<circle fill="#231F20" cx="-3294.097" cy="-572.251" r="36.923"/>
</g>
<g>
	<path fill="#231F20" d="M-3356.056-418h-57v-176c0-66.835,54.375-121.209,121.21-121.209s121.209,54.375,121.209,121.209h-57
		c0-35.405-28.804-64.209-64.209-64.209s-64.21,28.804-64.21,64.209V-418z"/>
</g>
<g>
	<polyline fill="#FFFFFF" points="-3246.9,-621.4 -3176.404,-684.397 -3123.906,-547.904 -3227.402,-553.904 	"/>
</g>
<g>
	<path fill="none" stroke="#231F20" stroke-width="57" stroke-miterlimit="10" d="M-3096-494.5c0,40.7-33.3,74-74,74h-265
		c-40.7,0-74-33.301-74-74v-211c0-40.7,33.3-74,74-74h265c40.7,0,74,33.3,74,74V-494.5z"/>
</g>
<g>
	<path fill="#231F20" d="M-4325.265,421.939h-122.979c-26.229,0-47.567-21.339-47.567-47.567v-86.036
		c0-26.229,21.339-47.567,47.567-47.567h122.979c26.229,0,47.567,21.338,47.567,47.567v86.036
		C-4277.698,400.6-4299.037,421.939-4325.265,421.939z M-4448.244,267.221c-11.643,0-21.115,9.472-21.115,21.115v86.036
		c0,11.643,9.472,21.115,21.115,21.115h122.979c11.643,0,21.115-9.472,21.115-21.115v-86.036c0-11.643-9.472-21.115-21.115-21.115
		H-4448.244z"/>
</g>
<g>
	<circle fill="#231F20" cx="-5023" cy="-260.167" r="22.832"/>
</g>
<g>
	<path fill="#231F20" d="M-5049.877-109.381h-112.232v-157.434c0-19.037,3.957-37.498,11.759-54.87
		c7.368-16.407,17.815-31.048,31.054-43.515c26.298-24.766,60.932-38.406,97.523-38.406c19.826,0,38.25,3.538,54.76,10.516
		c17.573,7.428,33.107,18.798,46.174,33.796c16.678,19.144,27.483,44.027,27.936,45.077l4.259,9.896L-5049.877-109.381z
		 M-5126.861-144.628h60.396l136.553-165.102c-3.914-7.414-10.067-17.873-17.505-26.41c-18.624-21.378-43.642-32.218-74.356-32.218
		c-27.572,0-53.625,10.235-73.357,28.818c-9.846,9.272-17.606,20.138-23.066,32.296c-5.75,12.802-8.664,26.404-8.664,40.429
		V-144.628z"/>
</g>
<g>
	<path fill="#231F20" d="M-5065.024-188.843h-35.247v-77.972c0-41.329,35.214-74.953,78.498-74.953
		c22.072,0,43.248,8.944,58.098,24.54l-25.525,24.306c-8.229-8.642-20.102-13.598-32.572-13.598
		c-23.849,0-43.251,17.812-43.251,39.706V-188.843z"/>
</g>
<circle fill="#231F20" cx="-5836.982" cy="854.459" r="36.923"/>
<path fill="none" stroke="#231F20" stroke-width="57" stroke-miterlimit="10" d="M-5761.687,781.838
	C-5779.71,762.908-5805.878,751-5835,751c-54.368,0-98.441,41.507-98.441,92.709v126.092"/>
<g>
	<path fill="none" stroke="#231F20" stroke-width="57" stroke-miterlimit="10" d="M-5655.886,924.211c0,40.699-33.3,74-74,74h-265
		c-40.7,0-74-33.301-74-74V738.816c0-40.699,33.3-74,74-74h265c40.7,0,74,33.301,74,74V924.211z"/>
</g>
<circle fill="#231F20" cx="-5276.982" cy="828.459" r="36.923"/>
<path fill="none" stroke="#231F20" stroke-width="57" stroke-miterlimit="10" d="M-5461,1015c-9.942-12.151-12.441-44-12.441-44
	V817.709c0-26.732,5.556-52.657,16.514-77.055c10.373-23.099,25.097-43.723,43.759-61.299C-5375.949,644.304-5326.88,625-5275,625
	c55.172,0,104.142,18.727,141.734,61.879c24.354,27.955,21.215,47.398,18.486,66.441c-2.947,20.566-30.966,63.04-30.966,63.04
	l-123.073,148.803c0,0-38.942,50.887-61.04,63.638c-21.142,12.199-79.141,15-79.141,15S-5443,1037-5461,1015z"/>
<path fill="none" stroke="#231F20" stroke-width="57" stroke-miterlimit="10" d="M-5201.687,755.838
	C-5219.71,736.908-5245.878,725-5275,725c-54.368,0-98.441,41.507-98.441,92.709v126.092"/>
<g>
	<path fill="#231F20" d="M-5288.601,251c34.847,0,65.796-16.656,85.339-42.438h-170.679
		C-5354.397,234.344-5323.446,251-5288.601,251z"/>
	<path fill="#231F20" d="M-5288.601,36.954c-34.846,0-65.797,16.656-85.34,42.438h170.679
		C-5222.805,53.61-5253.754,36.954-5288.601,36.954z"/>
	<path fill="#231F20" d="M-5158.633,79.393h-44.629c13.606,17.95,21.685,40.322,21.685,64.584s-8.078,46.634-21.685,64.584h44.629
		c14.648,0,26.633-11.984,26.633-26.633v-75.903C-5132,91.377-5143.984,79.393-5158.633,79.393z"/>
	<path fill="#231F20" d="M-5373.94,79.393h-44.629c-14.649,0-26.633,11.984-26.633,26.633v75.903
		c0,14.648,11.983,26.633,26.633,26.633h44.629c-13.605-17.95-21.683-40.322-21.683-64.584S-5387.546,97.343-5373.94,79.393z"/>
</g>
<path fill="#FFFFFF" stroke="#231F20" stroke-width="19" stroke-miterlimit="10" d="M-4801.513,854.228
	c-22.565-18.61-35.708-47.73-35.066-79.261c1.149-56.556,47.927-101.47,104.482-100.321l-12.499,35.104
	c45.543,0.924,81.715,38.595,80.791,84.139c-0.925,45.545-38.597,81.716-84.142,80.791
	C-4767.361,874.284-4783.641,868.968-4801.513,854.228z"/>
<g>
	<g>
		<path fill="#231F20" d="M-4786.636,825.462c6.912,6.949,15.97,11.933,25.114,15.209c19.047,6.825,38.277,0.894,53.613-11.217
			c4.285-3.385,3.515-10.627,0-14.143c-4.189-4.188-9.869-3.375-14.143,0c-11.195,8.842-23.701,10.094-36.2,5.316
			c1.138,0.435-2.001-0.951-2.349-1.124c-1.148-0.569-2.262-1.204-3.369-1.847c-1.898-1.101-3.713-2.343-5.48-3.64
			c-1.609-1.182,1.642,1.34-0.459-0.386c-0.48-0.395-0.949-0.805-1.414-1.217c-0.399-0.354-0.793-0.717-1.169-1.096
			C-4781.597,802.166-4795.737,816.311-4786.636,825.462L-4786.636,825.462z"/>
	</g>
</g>
<g>
	<circle fill="#231F20" cx="-3998.557" cy="335.406" r="16.273"/>
</g>
<g>
	<path fill="#231F20" d="M-4057.682,442.933l-1.521-0.304c-1.984-0.396-19.696-4.249-30.176-17.056
		c-6.203-7.583-7.859-20.962-8.283-26.362l-0.039-0.49v-68.052c0-13.567,2.82-26.725,8.382-39.105
		c5.251-11.694,12.697-22.129,22.131-31.013c18.743-17.652,43.428-27.373,69.506-27.373c14.132,0,27.262,2.522,39.028,7.494
		c12.524,5.295,23.596,13.398,32.908,24.087c14.383,16.51,12.438,30.051,11.153,39.012l-0.044,0.303
		c-1.575,10.996-12.335,27.976-15.596,32.919l-0.373,0.565l-54.525,65.924c-3.449,4.494-19.281,24.655-30.451,31.1
		c-11.09,6.399-33.842,7.954-40.551,8.278L-4057.682,442.933z M-4069.838,409.784c3.658,4.359,10.856,6.955,14.231,7.886
		c10.63-0.661,23.7-2.673,27.468-4.848c4.658-2.688,15.674-14.967,23.207-24.802l0.295-0.37l53.796-65.042
		c5.619-8.625,10.87-18.84,11.337-22.098l0.045-0.308c1.061-7.397,1.595-11.11-5.229-18.942
		c-13.273-15.236-31.104-22.961-52.995-22.961c-19.651,0-38.218,7.294-52.282,20.539c-7.018,6.608-12.547,14.353-16.439,23.018
		c-4.098,9.123-6.175,18.817-6.175,28.813v67.018C-4072.146,402.366-4070.855,408.09-4069.838,409.784z"/>
</g>
<g>
	<path fill="#231F20" d="M-4028.508,386.241h-25.121v-55.572c0-29.456,25.098-53.419,55.946-53.419
		c15.731,0,30.824,6.375,41.408,17.49l-18.194,17.322c-5.864-6.159-14.325-9.691-23.214-9.691
		c-16.997,0-30.825,12.694-30.825,28.298V386.241z"/>
</g>
<g>
	<path fill="#FFFFFF" d="M-5050.861,1856.21c-1.176,5.935,2.801,11.119,8.837,11.521l128.049,8.537
		c6.036,0.402,12.131,5.545,13.543,11.428l18.865,78.607c1.412,5.883,3.838,5.912,5.391,0.064l92.354-347.737
		c1.553-5.847-2.101-11.143-8.118-11.768l-132.117-13.727c-6.018-0.625-13.874-5.125-17.458-9.999l-36.967-50.275
		c-3.584-4.874-7.479-4.007-8.655,1.928L-5050.861,1856.21z"/>
	<path fill="none" stroke="#231F20" stroke-width="19" stroke-miterlimit="10" d="M-5050.861,1856.21
		c-1.176,5.935,2.801,11.119,8.837,11.521l128.049,8.537c6.036,0.402,12.131,5.545,13.543,11.428l18.865,78.607
		c1.412,5.883,3.838,5.912,5.391,0.064l92.354-347.737c1.553-5.847-2.101-11.143-8.118-11.768l-132.117-13.727
		c-6.018-0.625-13.874-5.125-17.458-9.999l-36.967-50.275c-3.584-4.874-7.479-4.007-8.655,1.928L-5050.861,1856.21z"/>
</g>
<polygon fill="none" stroke="#231F20" stroke-width="19" stroke-miterlimit="10" points="-5116,1664 -5112,1790 -4732,1852 
	-4684,1644 "/>
<path fill="none" stroke="#231F20" stroke-width="22" stroke-miterlimit="10" d="M-4995.964,1743.713
	c0-14.385,11.661-26.046,26.046-26.046s26.046,11.661,26.046,26.046"/>
<path fill="none" stroke="#231F20" stroke-width="22" stroke-miterlimit="10" d="M-4904.964,1743.713
	c0-14.385,11.661-26.046,26.046-26.046s26.046,11.661,26.046,26.046"/>
<g>
	<path fill="#231F20" d="M-4461.791,842.33c0,0-4.868,17.894-0.499,23.59c5.341,6.965,29.944,8.944,29.944,8.944l41.234,5.29
		l12.201,46.268l19.934-75.054l-101.479-15.774L-4461.791,842.33z"/>
	<path fill="#231F20" d="M-4334.676,735.764c-4.984-7.223-19.742-8.748-26.783-8.711c-11.517,0.063-45.922,3.627-45.922,3.627
		l-25.421-34.572l-13.427,67.729l111.401-5.408C-4333.272,749.986-4332.072,739.54-4334.676,735.764z"/>
	<polygon fill="#231F20" points="-4496.354,766.271 -4494.32,830.33 -4460.455,835.594 -4446.229,763.836 	"/>
	<path fill="#231F20" d="M-4286.886,756.101l-47.942,2.327c-1.215,6.604-2.646,11.979-2.646,11.979l-21.502,80.961l60.905,9.467
		L-4286.886,756.101z"/>
	<path fill="#FFFFFF" d="M-4334.828,758.428l-111.401,5.408l-14.226,71.758l101.479,15.774l21.502-80.961
		C-4337.475,770.407-4336.043,765.031-4334.828,758.428z"/>
</g>
<path fill="#231F20" d="M-5071,1975l-57.018,287.603c0,0-9.574,35.194-0.982,46.397c10.506,13.698,58.898,17.593,58.898,17.593
	L-4989,2337l24,91"/>
<path fill="#231F20" d="M-4965,2428l81.497-306.862c0,0,14.63-54.907,5.503-68.138c-9.801-14.209-38.828-17.209-52.677-17.135
	C-4953.328,2035.986-5021,2043-5021,2043l-50-68"/>
<polygon fill="#231F20" points="-5196,2113 -5192,2239 -4806,2299 -4784,2093 "/>
<path fill="#FFFFFF" d="M-4383.698,909.175c0,0,3.813,9.152,9.151,0c5.338-9.151,15.252,17.539,15.252,17.539l-41.943,36.605"/>
<path fill="#FFFFFF" d="M-4410.299,711.726c0,0,2.288-19.064,12.965-7.626c10.675,11.438,11.438-19.064,11.438-19.064l-41.18-8.389"
	/>
<ellipse fill="#231F20" cx="-4420.091" cy="801.097" rx="9.152" ry="20.59"/>
<ellipse fill="#231F20" cx="-4385.044" cy="800.079" rx="9.151" ry="20.592"/>
<polygon fill="#231F20" points="-4781.697,740.407 -4781.697,794.799 -4733.581,766.208 "/>
<polygon fill="#231F20" points="-4744.325,740.407 -4744.325,794.799 -4696.21,766.208 "/>
<g>
	<path fill="#231F20" d="M-3832.537,1361.175c-1.473-4.168-1.949-7.989-0.945-12.305c0.883-3.793,0.938-7.78,1.363-11.724
		l-2.68-24.917c-2.627-12.712-8.284-23.885-19.174-31.773c-10.673-7.731-22.833-10.897-35.883-10.951l-15.541,3.054
		c-0.717,0.298-1.459,0.599-2.193,0.914c-12.514,5.364-22.142,13.821-27.442,26.532c-4.267,10.229-4.046,20.953-2.258,31.672
		c0.749,4.492,1.911,8.916,2.884,13.36c-8.869,4.854-9.781,15.528-6.578,21.854c4.079,8.056,11.938,10.928,20.93,7.478
		c0.234,0.376,0.495,0.764,0.725,1.169c10.178,17.973,25.391,28.268,46.146,29.407c15.667,0.859,28.358-5.183,37.17-18.381
		C-3830.801,1378.757-3829.389,1370.085-3832.537,1361.175z"/>
</g>
<polygon fill-rule="evenodd" clip-rule="evenodd" points="-3898.521,1314.984 -3893.521,1358.484 -3806.021,1364.984 
	-3798.021,1294.984 "/>
<path fill-rule="evenodd" clip-rule="evenodd" d="M-3865.795,1344.106c-0.785,2.326-1.225,4.563-2.262,6.478
	c-1.357,2.508-3.719,2.472-5.427,0.223c-2.416-3.182-2.422-10.305-0.012-13.49c1.622-2.145,3.988-2.281,5.292,0.052
	C-3867.07,1339.395-3866.593,1341.788-3865.795,1344.106z"/>
<path fill-rule="evenodd" clip-rule="evenodd" d="M-3851.457,1343.617c0.666-2.138,1.008-4.157,1.904-5.89
	c1.322-2.554,3.725-2.539,5.344-0.205c2.135,3.076,2.086,9.198-0.096,12.187c-1.563,2.14-3.781,2.248-5.045-0.055
	C-3850.359,1347.813-3850.775,1345.646-3851.457,1343.617z"/>
<g>
	<path fill="#231F20" d="M-3680.79,758.953l81.097-16.141c-4.269-11.68-11.181-21.903-21.949-29.705
		c-14.17-10.265-30.315-14.469-47.644-14.54l-20.633,4.055c-0.952,0.396-1.937,0.795-2.914,1.214
		c-16.615,7.121-29.397,18.351-36.435,35.228c-5.664,13.582-5.372,27.82-2.999,42.054c0.997,5.963,2.539,11.837,3.831,17.737
		c-11.776,6.444-12.99,20.618-8.737,29.016c5.418,10.697,15.851,14.511,27.791,9.929c0.31,0.499,0.657,1.014,0.962,1.552
		c13.513,23.864,33.712,37.532,61.271,39.046c20.801,1.141,37.652-6.881,49.354-24.405c6.429-9.633,8.498-20.259,5.404-31.208
		l-81.761-6.073L-3680.79,758.953z"/>
	<path d="M-3599.693,742.813c1.463,4.004,2.62,8.175,3.51,12.482c0,0,4.795,27.336,1.749,48.649
		c-0.833,5.822-0.701,10.804,1.255,16.338c0.295,0.835,0.553,1.668,0.789,2.501l34.417,2.557l10.622-92.942L-3599.693,742.813z"/>
	<path fill="#FFFFFF" d="M-3596.184,755.295c-0.89-4.308-2.047-8.479-3.51-12.482l-81.097,16.141l6.639,57.757l81.761,6.073
		c-0.236-0.833-0.382-1.715-0.789-2.501C-3598.47,810.072-3596.184,755.295-3596.184,755.295z"/>
</g>
<ellipse fill-rule="evenodd" clip-rule="evenodd" cx="-3648.481" cy="791.041" rx="8.852" ry="15.047"/>
<ellipse fill-rule="evenodd" clip-rule="evenodd" cx="-3611.994" cy="788.297" rx="7.966" ry="14.605"/>
<g>
	<path fill="#FFFFFF" d="M-3647.059,848.345c9.462,5.665,21.611,7.817,31.676,2.655c3.811-1.955,0.451-7.684-3.352-5.733
		c-7.875,4.04-17.666,1.72-24.974-2.655C-3647.39,840.406-3650.727,846.148-3647.059,848.345L-3647.059,848.345z"/>
</g>
<g>
	<path fill="#231F20" d="M-4040.907,754.727l81.097-16.139c-4.269-11.681-11.182-21.905-21.949-29.707
		c-14.17-10.264-30.316-14.469-47.644-14.539l-20.633,4.054c-0.953,0.396-1.937,0.795-2.915,1.215
		c-16.614,7.122-29.396,18.351-36.435,35.227c-5.664,13.583-5.372,27.821-2.998,42.054c0.996,5.964,2.538,11.837,3.83,17.737
		c-11.776,6.445-12.989,20.619-8.737,29.017c5.418,10.697,15.852,14.51,27.791,9.929c0.31,0.499,0.657,1.014,0.962,1.552
		c13.514,23.863,33.713,37.532,61.271,39.045c20.801,1.141,37.652-6.881,49.354-24.404c6.43-9.633,8.498-20.259,5.404-31.208
		l-81.76-6.073L-4040.907,754.727z"/>
	<path d="M-3959.811,738.588c1.463,4.002,2.619,8.173,3.51,12.48c0,0,4.794,27.336,1.748,48.649
		c-0.833,5.823-0.701,10.804,1.255,16.338c0.297,0.836,0.553,1.668,0.789,2.502l34.417,2.556l10.622-92.941L-3959.811,738.588z"/>
	<path fill="#FFFFFF" d="M-3956.301,751.068c-0.891-4.308-2.047-8.479-3.51-12.48l-81.097,16.139l6.639,57.758l81.76,6.073
		c-0.236-0.834-0.382-1.715-0.789-2.502C-3958.587,805.845-3956.301,751.068-3956.301,751.068z"/>
</g>
<path fill-rule="evenodd" clip-rule="evenodd" d="M-4005.869,780.971c0,11.539-5.502,20.892-12.291,20.892
	c-6.788,0-12.291-9.353-12.291-20.892c0-11.542,5.503-20.898,12.291-20.898C-4011.371,760.072-4005.869,769.429-4005.869,780.971z"
	/>
<ellipse fill-rule="evenodd" clip-rule="evenodd" cx="-3977.407" cy="783.18" rx="9.262" ry="16.979"/>
<path fill="#FFFFFF" d="M-3978.82,836.122c5.132-0.75,3.801,5.589,3.188,8.826c-0.759,4.009-2.296,6.666-5.521,9.418
	c-5.648,4.818-14.141,6.284-21.313,3.65c-5.822-2.138-11.554-7.788-13.854-13.848c-0.956-2.519-1.334-8.856,0.068-11.694
	c3.896-7.897,16.116,3.635,32.41,3.852"/>
<g>
	<g>
		<path fill="#FFFFFF" d="M-3630.269,362.344c31.532,0,58.953-17.602,72.978-43.517c-14.024-25.916-41.445-43.519-72.978-43.519
			c-31.534,0-58.955,17.603-72.979,43.519C-3689.224,344.742-3661.803,362.344-3630.269,362.344z"/>
		<path fill="#231F20" d="M-3630.269,371.417c-33.825,0-64.847-18.496-80.959-48.272l-2.336-4.318l2.336-4.317
			c16.112-29.776,47.134-48.274,80.959-48.274c33.823,0,64.845,18.498,80.957,48.274l2.336,4.317l-2.336,4.318
			C-3565.424,352.921-3596.445,371.417-3630.269,371.417z M-3692.74,318.827c13.491,21.368,36.99,34.444,62.472,34.444
			c25.479,0,48.979-13.076,62.47-34.444c-13.49-21.367-36.99-34.445-62.47-34.445S-3679.249,297.46-3692.74,318.827z"/>
	</g>
</g>
<g>
	<circle fill="#231F20" cx="-3628.214" cy="318.483" r="37.007"/>
</g>
<g>
	<polyline fill="#231F20" points="-3658.368,376.746 -3665.222,412.383 -3688.522,413.753 -3696.746,437.055 -3636.438,432.942 
		-3637.808,384.97 	"/>
</g>
<g>
	<polyline fill="#231F20" points="-3596.688,376.746 -3589.837,412.383 -3566.535,413.753 -3558.311,437.055 -3618.618,432.942 
		-3617.248,384.97 	"/>
</g>
<g>
	<path fill="#231F20" d="M-3588.465,259.545c0-23.466-19.023-42.49-42.49-42.49s-42.491,19.024-42.491,42.49H-3588.465z"/>
</g>
<g>
	<polyline fill="#231F20" points="-3673.446,259.545 -3561.052,259.545 -3561.052,247.209 -3629.583,251.321 	"/>
</g>
<polyline fill="#FFFFFF" points="-4040.907,754.727 -4102.681,769.369 -4099.681,808.369 -4030.681,812.369 "/>
<path fill="none" stroke="#231F20" stroke-width="10" stroke-miterlimit="10" d="M-4095.347,813.702c0,0-0.001-10.667,8.666-18
	s-2.666-32.333-2.666-32.333"/>
<g>
	<circle fill="#231F20" cx="-3007.209" cy="536.702" r="8.697"/>
</g>
<g>
	<circle fill="#231F20" cx="-2676.24" cy="547.269" r="19.263"/>
</g>
<g>
	<circle fill="#231F20" cx="-3072.021" cy="536.702" r="8.697"/>
</g>
<g>
	<path fill="#231F20" d="M-3023.217,570.582h-32.797v-36.413c0-8.339-7.392-15.124-16.475-15.124c-4.751,0-9.272,1.888-12.406,5.18
		l-9.724-9.258c5.656-5.94,13.723-9.348,22.13-9.348c16.487,0,29.899,12.808,29.899,28.549v22.987h5.947v-22.987
		c0-15.742,13.412-28.549,29.899-28.549c8.407,0,16.474,3.407,22.13,9.348l-9.724,9.258c-3.134-3.292-7.655-5.18-12.406-5.18
		c-9.084,0-16.475,6.785-16.475,15.124V570.582z"/>
</g>
<g>
	<rect x="-3070.338" y="582.877" fill="#231F20" width="61.24" height="13.425"/>
</g>
<text transform="matrix(1 0 0 1 -2878.4775 594.9678)" font-family="'MyriadPro-Regular'" font-size="126.2417">F</text>
<text transform="matrix(1 0 0 1 -2370.0352 562.8633)" font-family="'MyriadPro-Regular'" font-size="54.4159">=</text>
<g>
	<g>
		<path fill="#231F20" d="M-2465.51,578.992c-26.12,0-52.239,0-78.359,0c3.333,3.333,6.667,6.667,10,10c0-26.12,0-52.239,0-78.359
			c-3.333,3.333-6.667,6.667-10,10c26.12,0,52.239,0,78.359,0c-3.333-3.333-6.667-6.667-10-10c0,26.12,0,52.239,0,78.359
			c0,12.897,20,12.897,20,0c0-26.12,0-52.239,0-78.359c0-5.451-4.549-10-10-10c-26.12,0-52.239,0-78.359,0c-5.451,0-10,4.549-10,10
			c0,26.12,0,52.239,0,78.359c0,5.451,4.549,10,10,10c26.12,0,52.239,0,78.359,0
			C-2452.612,598.991-2452.612,578.992-2465.51,578.992z"/>
	</g>
</g>
<g>
	<text transform="matrix(1 0 0 1 -3082.8809 680.082)" font-family="'MyriadPro-Regular'" font-size="29.2374">Face</text>
</g>
<g>
	<text transform="matrix(1 0 0 1 -2902.9453 677.1807)" font-family="'MyriadPro-Regular'" font-size="29.2374">Letter F</text>
</g>
<text transform="matrix(1 0 0 1 -2742.5996 678.4561)" font-family="'MyriadPro-Regular'" font-size="29.2374">Eye/Record</text>
<text transform="matrix(1 0 0 1 -2540.8984 679.9072)" font-family="'MyriadPro-Regular'" font-size="29.2374">Screen</text>
<g>
	<circle fill="#231F20" cx="-4713.189" cy="346.054" r="18.011"/>
</g>
<g>
	<path fill="#231F20" d="M-4746.339,402.318h-27.804v-61.507c0-32.603,27.778-59.126,61.921-59.126
		c17.412,0,34.115,7.056,45.83,19.357l-20.136,19.173c-6.491-6.816-15.856-10.727-25.694-10.727
		c-18.812,0-34.117,14.051-34.117,31.322V402.318z"/>
</g>
<text transform="matrix(1 0 0 1 -2319.3477 727.5059)"><tspan x="0" y="0" font-family="'MyriadPro-Regular'" font-size="19.0737">This Shows a Letter F icon</tspan><tspan x="0" y="22.889" font-family="'MyriadPro-Regular'" font-size="19.0737">but it also shows a Face watching the screen</tspan><tspan x="0" y="45.777" font-family="'MyriadPro-Regular'" font-size="19.0737">The dot is the eyeball</tspan></text>
<g>
	<circle fill="#231F20" cx="-2158.992" cy="566.284" r="17.135"/>
</g>
<g>
	<path fill="#231F20" d="M-2190.531,619.812h-26.451v-58.516c0-31.017,26.428-56.25,58.91-56.25
		c16.564,0,32.456,6.713,43.601,18.416l-19.157,18.24c-6.176-6.484-15.085-10.205-24.443-10.205
		c-17.898,0-32.459,13.368-32.459,29.799V619.812z"/>
</g>
<g>
	<path fill="#231F20" d="M-2109.293,646.222h-122.979c-26.229,0-47.566-21.34-47.566-47.568v-86.035
		c0-26.229,21.338-47.567,47.566-47.567h122.979c26.229,0,47.568,21.339,47.568,47.567v86.035
		C-2061.725,624.882-2083.064,646.222-2109.293,646.222z M-2232.271,491.503c-11.643,0-21.115,9.472-21.115,21.115v86.035
		c0,11.644,9.473,21.115,21.115,21.115h122.979c11.644,0,21.115-9.472,21.115-21.115v-86.035c0-11.644-9.472-21.115-21.115-21.115
		H-2232.271z"/>
</g>
<line fill="none" stroke="#231F20" stroke-miterlimit="10" x1="-2165.727" y1="515" x2="-2165.727" y2="411.1"/>
<line fill="none" stroke="#231F20" stroke-miterlimit="10" x1="-2158.992" y1="566.284" x2="-2009.518" y2="566.284"/>
<line fill="none" stroke="#231F20" stroke-miterlimit="10" x1="-2072.514" y1="505.046" x2="-1967.52" y2="505.046"/>
<line fill="none" stroke="#231F20" stroke-miterlimit="10" x1="-2203.008" y1="612.09" x2="-2026.017" y2="612.09"/>
<text transform="matrix(1 0 0 1 -2188.0078 396.4297)" font-family="'MyriadPro-Regular'" font-size="12">Eyebrow</text>
<text transform="matrix(1 0 0 1 -1958.0205 505.0957)" font-family="'MyriadPro-Regular'" font-size="12">Screen</text>
<text transform="matrix(1 0 0 1 -1990.8516 569.7915)" font-family="'MyriadPro-Regular'" font-size="12">Eyeball</text>
<text transform="matrix(1 0 0 1 -2002.0176 616.5898)" font-family="'MyriadPro-Regular'" font-size="12">Nose</text>
<text transform="matrix(1 0 0 1 -4826.5996 524.3608)" font-family="'MyriadPro-Regular'" font-size="30.791">1.Letter F icon</text>
<text transform="matrix(1 0 0 1 -4489.7725 524.3604)"><tspan x="0" y="0" font-family="'MyriadPro-Regular'" font-size="30.791">2. Letter F icon and </tspan><tspan x="0" y="36.949" font-family="'MyriadPro-Regular'" font-size="30.791">Computer Screen</tspan></text>
<text transform="matrix(1 0 0 1 -4122.6074 524.3604)"><tspan x="0" y="0" font-family="'MyriadPro-Regular'" font-size="30.791">3. Letter F Icon, the </tspan><tspan x="0" y="36.949" font-family="'MyriadPro-Regular'" font-size="30.791">shape around it is </tspan><tspan x="0" y="73.898" font-family="'MyriadPro-Regular'" font-size="30.791">face</tspan></text>
<text transform="matrix(1 0 0 1 -3767.6914 524.3691)"><tspan x="0" y="0" font-family="'MyriadPro-Regular'" font-size="30.791">4. The Eye represents</tspan><tspan x="0" y="36.949" font-family="'MyriadPro-Regular'" font-size="30.791">every single fan, The eye </tspan><tspan x="0" y="73.898" font-family="'MyriadPro-Regular'" font-size="30.791">also represents watching</tspan></text>
<text transform="matrix(1 0 0 1 -4892.2471 947.3691)"><tspan x="0" y="0" font-family="'MyriadPro-Regular'" font-size="30.791">5. Chat Bubble</tspan><tspan x="0" y="36.949" font-family="'MyriadPro-Regular'" font-size="30.791">with the fast forward </tspan><tspan x="0" y="73.898" font-family="'MyriadPro-Regular'" font-size="30.791">symbol as eyes, </tspan></text>
<text transform="matrix(1 0 0 1 -4548.0273 951.1211)" font-family="'MyriadPro-Regular'" font-size="30.791">6. Screen and chat bubble</text>
<text transform="matrix(1 0 0 1 -4149.2471 947.3691)"><tspan x="0" y="0" font-family="'MyriadPro-Regular'" font-size="30.791">7. Young fan watching </tspan><tspan x="0" y="36.949" font-family="'MyriadPro-Regular'" font-size="30.791">the screen</tspan></text>
<text transform="matrix(1 0 0 1 -3767.2471 947.3691)"><tspan x="0" y="0" font-family="'MyriadPro-Regular'" font-size="30.791">8. Young fan watching </tspan><tspan x="0" y="36.949" font-family="'MyriadPro-Regular'" font-size="30.791">the screen</tspan></text>
<text transform="matrix(1 0 0 1 -2940.0879 259.5454)" font-family="'Scandia-Bold'" font-size="141.6179">FanSubs</text>
<text transform="matrix(1 0 0 1 -3072.0215 939.8789)" font-family="'Apparat-Black'" font-size="141.6179">FanSubs</text>
<g>
	<circle fill="#231F20" cx="-3022.668" cy="197.425" r="13.186"/>
</g>
<g>
	<path fill="#231F20" d="M-3070.574,284.549l-1.232-0.247c-1.608-0.321-15.959-3.442-24.45-13.82
		c-5.026-6.144-6.368-16.984-6.712-21.359l-0.031-0.397v-55.139c0-10.993,2.285-21.653,6.791-31.685
		c4.255-9.475,10.288-17.93,17.932-25.128c15.187-14.303,35.188-22.179,56.317-22.179c11.45,0,22.089,2.043,31.622,6.072
		c10.148,4.291,19.119,10.856,26.664,19.517c11.654,13.377,10.078,24.349,9.037,31.609l-0.035,0.245
		c-1.276,8.909-9.995,22.667-12.637,26.672l-0.303,0.458l-44.179,53.415c-2.795,3.642-15.623,19.978-24.673,25.199
		c-8.985,5.185-27.42,6.445-32.856,6.708L-3070.574,284.549z M-3080.424,257.689c2.964,3.532,8.797,5.635,11.531,6.39
		c8.612-0.535,19.203-2.166,22.256-3.928c3.773-2.178,12.699-12.127,18.803-20.097l0.239-0.299l43.588-52.701
		c4.553-6.988,8.808-15.265,9.186-17.904l0.037-0.25c0.858-5.994,1.292-9.002-4.237-15.348
		c-10.754-12.344-25.201-18.604-42.938-18.604c-15.923,0-30.966,5.911-42.361,16.642c-5.687,5.354-10.167,11.629-13.32,18.65
		c-3.32,7.392-5.003,15.247-5.003,23.346v54.302C-3082.294,251.679-3081.248,256.317-3080.424,257.689z"/>
</g>
<g>
	<path fill="#231F20" d="M-3046.937,238.613h-20.354v-45.027c0-23.867,20.335-43.282,45.33-43.282
		c12.746,0,24.976,5.165,33.551,14.171l-14.742,14.035c-4.751-4.99-11.606-7.853-18.809-7.853
		c-13.772,0-24.977,10.286-24.977,22.928V238.613z"/>
</g>
<g>
	<circle fill="#231F20" cx="-2084.762" cy="191.821" r="12.197"/>
</g>
<g>
	<path fill="#231F20" d="M-2107.212,221.922h-18.828V188.27c0-22.078,18.812-40.04,41.933-40.04
		c11.791,0,23.104,4.778,31.036,13.108l-13.636,12.984c-4.396-4.616-10.738-7.265-17.4-7.265c-12.74,0-23.104,9.516-23.104,21.212
		V221.922z"/>
</g>
<g>
	<path fill="#231F20" d="M-2049.385,248.722h-87.539c-18.67,0-33.858-15.19-33.858-33.86V153.62
		c0-18.67,15.188-33.859,33.858-33.859h87.539c18.67,0,33.86,15.189,33.86,33.859v61.242
		C-2015.524,233.532-2030.715,248.722-2049.385,248.722z M-2136.924,138.589c-8.287,0-15.03,6.742-15.03,15.03v61.242
		c0,8.288,6.743,15.03,15.03,15.03h87.539c8.288,0,15.03-6.742,15.03-15.03V153.62c0-8.288-6.742-15.03-15.03-15.03H-2136.924z"/>
</g>
<g>
	<g>
		<path fill="#FFFFFF" d="M-3158.496,908.37c22.298,0,41.689-12.447,51.607-30.773c-9.918-18.326-29.31-30.775-51.607-30.775
			c-22.3,0-41.691,12.449-51.608,30.775C-3200.188,895.923-3180.796,908.37-3158.496,908.37z"/>
		<path fill="#231F20" d="M-3158.496,914.786c-23.921,0-45.857-13.079-57.252-34.137l-1.651-3.053l1.651-3.054
			c11.395-21.057,33.331-34.137,57.252-34.137c23.919,0,45.856,13.08,57.25,34.137l1.651,3.054l-1.651,3.053
			C-3112.64,901.707-3134.577,914.786-3158.496,914.786z M-3202.675,877.597c9.541,15.11,26.159,24.357,44.179,24.357
			c18.019,0,34.637-9.247,44.177-24.357c-9.54-15.11-26.158-24.359-44.177-24.359S-3193.134,862.486-3202.675,877.597z"/>
	</g>
</g>
<g>
	<circle fill="#231F20" cx="-3157.043" cy="877.354" r="26.17"/>
</g>
<g>
	<polyline fill="#231F20" points="-3178.367,918.555 -3183.214,943.756 -3199.691,944.725 -3205.507,961.203 -3162.858,958.295 
		-3163.828,924.371 	"/>
</g>
<g>
	<polyline fill="#231F20" points="-3134.749,918.555 -3129.904,943.756 -3113.426,944.725 -3107.61,961.203 -3150.258,958.295 
		-3149.288,924.371 	"/>
</g>
<g>
	<path fill="#231F20" d="M-3128.935,835.674c0-16.594-13.452-30.048-30.047-30.048c-16.596,0-30.049,13.454-30.049,30.048H-3128.935
		z"/>
</g>
<g>
	<polyline fill="#231F20" points="-3189.03,835.674 -3109.548,835.674 -3109.548,826.95 -3158.012,829.858 	"/>
</g>
<text transform="matrix(1 0 0 1 -2388.0342 1090.8809)" font-family="'Apparat-Black'" font-size="141.6179">FanSubs</text>
<g>
	<path fill="#231F20" d="M-2140.653,881.908l59.256-11.792c-3.118-8.535-8.17-16.006-16.037-21.706
		c-10.354-7.5-22.152-10.572-34.813-10.624l-15.076,2.962c-0.696,0.289-1.415,0.581-2.13,0.888
		c-12.14,5.204-21.479,13.409-26.622,25.74c-4.139,9.924-3.926,20.328-2.19,30.728c0.728,4.357,1.854,8.649,2.798,12.96
		c-8.604,4.71-9.49,15.066-6.384,21.202c3.959,7.816,11.583,10.603,20.307,7.255c0.226,0.364,0.48,0.74,0.702,1.134
		c9.875,17.437,24.634,27.424,44.771,28.529c15.198,0.833,27.513-5.027,36.062-17.832c4.698-7.038,6.21-14.803,3.949-22.803
		l-59.74-4.438L-2140.653,881.908z"/>
	<path d="M-2081.397,870.116c1.069,2.924,1.914,5.972,2.565,9.119c0,0,3.503,19.975,1.276,35.547
		c-0.607,4.256-0.512,7.895,0.918,11.938c0.217,0.61,0.403,1.219,0.576,1.828l25.148,1.867l7.761-67.91L-2081.397,870.116z"/>
	<path fill="#FFFFFF" d="M-2078.832,879.235c-0.651-3.147-1.496-6.195-2.565-9.119l-59.256,11.792l4.852,42.203l59.74,4.438
		c-0.173-0.609-0.279-1.253-0.576-1.828C-2080.503,919.26-2078.832,879.235-2078.832,879.235z"/>
</g>
<path fill-rule="evenodd" clip-rule="evenodd" d="M-2115.051,901.085c0,8.431-4.021,15.265-8.981,15.265
	c-4.959,0-8.98-6.834-8.98-15.265c0-8.434,4.021-15.271,8.98-15.271C-2119.071,885.814-2115.051,892.651-2115.051,901.085z"/>
<ellipse fill-rule="evenodd" clip-rule="evenodd" cx="-2094.254" cy="902.698" rx="6.767" ry="12.407"/>
<path fill="#FFFFFF" d="M-2095.287,941.383c3.75-0.548,2.777,4.084,2.33,6.449c-0.555,2.929-1.678,4.87-4.034,6.882
	c-4.127,3.521-10.332,4.592-15.573,2.667c-4.254-1.563-8.442-5.69-10.122-10.118c-0.699-1.841-0.975-6.472,0.05-8.545
	c2.847-5.771,11.776,2.656,23.682,2.814"/>
<polyline fill="#FFFFFF" points="-2140.653,881.908 -2185.79,892.607 -2183.598,921.104 -2133.181,924.026 "/>
<path fill="none" stroke="#231F20" stroke-width="10" stroke-miterlimit="10" d="M-2178.431,928.001c0,0-2.001-10.794,4.332-16.152
	s-0.948-24.625-0.948-24.625"/>
<polygon fill="#231F20" points="-2170.781,885.814 -2158.992,922.53 -2170.781,928.549 -2180.431,916.35 -2169.711,902.698 "/>
<ellipse fill="#FFFFFF" cx="-3593.483" cy="313.967" rx="10.544" ry="10.859"/>
<line fill="#231F20" stroke="#FFFFFF" stroke-width="3" stroke-miterlimit="10" x1="-2072.889" y1="905.8" x2="-2061.822" y2="908.884"/>
<line fill="#231F20" stroke="#FFFFFF" stroke-width="3" stroke-miterlimit="10" x1="-2072.726" y1="899.564" x2="-2057.914" y2="899.683"/>
<line fill="#231F20" stroke="#FFFFFF" stroke-width="3" stroke-miterlimit="10" x1="-2073.729" y1="891.895" x2="-2065.055" y2="889.454"/>
<g>
	<circle fill="#231F20" cx="-1051.557" cy="-142.594" r="16.273"/>
</g>
<g>
	<path fill="#231F20" d="M-1110.682-35.066l-1.521-0.305c-1.984-0.396-19.696-4.249-30.176-17.057
		c-6.203-7.582-7.859-20.961-8.283-26.361l-0.039-0.49v-68.052c0-13.567,2.82-26.725,8.382-39.105
		c5.251-11.694,12.697-22.129,22.131-31.013c18.743-17.652,43.428-27.373,69.506-27.373c14.132,0,27.262,2.522,39.028,7.494
		c12.524,5.295,23.596,13.398,32.908,24.087c14.383,16.51,12.438,30.051,11.153,39.012l-0.044,0.303
		c-1.575,10.996-12.335,27.976-15.596,32.919l-0.373,0.565l-54.525,65.923c-3.449,4.494-19.281,24.656-30.451,31.101
		c-11.09,6.399-33.842,7.954-40.551,8.278L-1110.682-35.066z M-1122.838-68.217c3.658,4.359,10.856,6.955,14.231,7.887
		c10.63-0.66,23.7-2.673,27.468-4.848c4.658-2.688,15.674-14.967,23.207-24.803l0.295-0.369l53.796-65.042
		c5.619-8.625,10.87-18.84,11.337-22.098l0.045-0.308c1.061-7.397,1.595-11.11-5.229-18.942
		c-13.273-15.236-31.104-22.961-52.995-22.961c-19.651,0-38.218,7.294-52.282,20.539c-7.018,6.608-12.547,14.353-16.439,23.018
		c-4.098,9.123-6.175,18.817-6.175,28.813v67.019C-1125.146-75.634-1123.855-69.91-1122.838-68.217z"/>
</g>
<g>
	<path fill="#231F20" d="M-1081.508-91.76h-25.121v-55.571c0-29.456,25.098-53.419,55.946-53.419
		c15.731,0,30.824,6.375,41.408,17.49l-18.194,17.322c-5.864-6.159-14.325-9.691-23.214-9.691
		c-16.997,0-30.825,12.694-30.825,28.298V-91.76z"/>
</g>
<g>
	<path fill="#231F20" d="M-1378.791,1414.33c0,0-4.867,17.894-0.498,23.59c5.34,6.965,29.943,11.944,29.943,11.944l30.846,7.636
		l22.59,40.922l19.934-75.054l-101.479-15.774L-1378.791,1414.33z"/>
	<path fill="#231F20" d="M-1251.676,1307.764c-3.324-9.264-17.324-13.764-29.902-12.391c-11.449,1.25-42.422,3.127-42.422,3.127
		l-25.803-30.393l-13.427,67.729l111.401-5.408C-1250.272,1321.986-1250.127,1312.081-1251.676,1307.764z"/>
	<polygon fill="#231F20" points="-1413.354,1338.271 -1411.32,1402.33 -1377.455,1407.594 -1363.229,1335.836 	"/>
	<path fill="#231F20" d="M-1203.886,1328.101l-47.942,2.327c-1.215,6.604-2.646,11.979-2.646,11.979l-21.502,80.961l60.905,9.467
		L-1203.886,1328.101z"/>
	<path fill="#FFFFFF" d="M-1251.828,1330.428l-111.401,5.408l-14.226,71.758l101.479,15.774l21.502-80.961
		C-1254.475,1342.407-1253.043,1337.031-1251.828,1330.428z"/>
</g>
<path fill="#FFFFFF" d="M-1327.299,1283.726c0,0,2.287-19.064,12.965-7.626c10.675,11.438,11.438-19.064,11.438-19.064l-41.18-8.389
	"/>
<ellipse fill="#231F20" cx="-1337.091" cy="1373.097" rx="9.152" ry="20.59"/>
<ellipse fill="#231F20" cx="-1302.044" cy="1372.079" rx="9.151" ry="20.592"/>
<g>
	<circle fill="#231F20" cx="-1238.339" cy="-311.667" r="16.273"/>
</g>
<g>
	<path fill="none" stroke="#231F20" stroke-miterlimit="10" d="M-1204.896-311.667c0,18.471-14.975,33.441-33.441,33.441
		c-18.469,0-33.443-14.971-33.443-33.441c0-18.469,14.975-33.439,33.443-33.439C-1219.87-345.107-1204.896-330.136-1204.896-311.667
		z"/>
</g>
<g>
	<path fill="#231F20" d="M-1268.29-260.833h-25.121v-55.571c0-29.456,25.098-53.419,55.946-53.419
		c15.731,0,30.824,6.375,41.408,17.49l-18.194,17.322c-5.864-6.159-14.325-9.691-23.214-9.691
		c-16.997,0-30.825,12.694-30.825,28.298V-260.833z"/>
</g>
<g>
	<g>
		<path fill="#8D12DD" d="M-1192.553,630.962h-36.668v-70.165c0-42.839,34.856-77.692,77.7-77.692
			c20.879,0,40.475,8.167,55.177,22.996l-26.038,25.817c-7.765-7.832-18.114-12.145-29.139-12.145
			c-22.626,0-41.032,18.403-41.032,41.024V630.962z"/>
	</g>
</g>
<g>
	<g>
		<path fill="#8D12DD" d="M-1128.572,560.799c0,12.676-10.277,22.951-22.949,22.951c-12.676,0-22.952-10.274-22.952-22.951
			c0-12.673,10.276-22.948,22.952-22.948C-1138.85,537.851-1128.572,548.126-1128.572,560.799z"/>
	</g>
</g>
<g>
	<g>
		<path fill="#8D12DD" d="M-1055.152,553.333"/>
	</g>
	<g>
		<path fill="#8D12DD" d="M-1221.097,706.767c-15.606,0-30.772-5.541-42.703-15.601c-13.639-11.501-21.933-27.604-23.354-45.346
			l-0.058-1.464v-83.555c0-74.723,60.796-135.514,135.523-135.514c36.42,0,70.599,14.244,96.241,40.109l0.254,0.26
			c2.496,2.621,24.495,26.309,27.842,50.562c2.582,18.713-2.813,37.277-14.432,49.659l-0.513,0.525l-3.188,3.12l-129.688,118.905
			l-3.165,2.691C-1190.323,701.226-1205.49,706.767-1221.097,706.767z M-1250.544,643.536c0.778,7.656,4.448,14.596,10.38,19.598
			c5.405,4.557,11.998,6.965,19.067,6.965s13.663-2.408,19.067-6.965l2.583-2.197l128.946-118.225l2.172-2.137
			c3.863-4.298,5.688-11.847,4.652-19.343c-1.354-9.825-12.795-24.704-17.945-30.152c-18.688-18.781-43.564-29.124-70.067-29.124
			c-54.509,0-98.855,44.342-98.855,98.846V643.536z"/>
	</g>
</g>
<g>
	<g>
		<path fill="#8D12DD" d="M1879.872,482.781h-16.028v-30.672c0-18.729,15.236-33.965,33.966-33.965
			c9.128,0,17.694,3.571,24.122,10.053l-11.384,11.286c-3.394-3.424-7.919-5.309-12.738-5.309c-9.891,0-17.938,8.045-17.938,17.935
			V482.781z"/>
	</g>
</g>
<g>
	<g>
		<circle fill="#8D12DD" cx="1897.81" cy="452.109" r="10.034"/>
	</g>
</g>
<g>
	<g>
		<path fill="#8D12DD" d="M1939.938,448.845"/>
	</g>
	<g>
		<path fill="#8D12DD" d="M1867.394,515.92c-6.821,0-13.452-2.422-18.668-6.82c-5.961-5.026-9.589-12.067-10.209-19.823l-0.025-0.64
			v-36.527c0-32.665,26.578-59.24,59.246-59.24c15.921,0,30.862,6.227,42.072,17.534l0.11,0.114
			c1.093,1.146,10.709,11.501,12.172,22.103c1.129,8.181-1.229,16.296-6.31,21.709l-0.222,0.23l-1.395,1.363l-56.697,51.98
			l-1.382,1.176C1880.846,513.498,1874.217,515.92,1867.394,515.92z M1854.522,488.278c0.339,3.347,1.942,6.381,4.536,8.567
			c2.363,1.992,5.245,3.045,8.335,3.045c3.091,0,5.973-1.053,8.337-3.045l1.129-0.961l56.37-51.684l0.948-0.934
			c1.689-1.879,2.488-5.179,2.034-8.456c-0.593-4.295-5.593-10.8-7.845-13.182c-8.169-8.21-19.045-12.731-30.63-12.731
			c-23.83,0-43.215,19.385-43.215,43.21V488.278z"/>
	</g>
</g>
<g>
	<rect x="-1067.989" y="1485.126" width="46.5" height="95.333"/>
	<rect x="-911.489" y="1485.126" width="46.5" height="95.333"/>
	<polygon points="-1021.489,1626.959 -947.993,1626.959 -911.489,1655.459 -911.489,1580.459 -1021.489,1580.459 	"/>
	<polygon points="-911.489,1438.626 -985.994,1438.626 -1021.489,1413.126 -1021.489,1485.126 -911.489,1485.126 	"/>
</g>
<path d="M-958.989,1452.126"/>
<ellipse fill="#231F20" cx="-985.081" cy="1531.889" rx="9.152" ry="20.59"/>
<ellipse fill="#231F20" cx="-950.034" cy="1530.871" rx="9.151" ry="20.592"/>
<g>
	<path fill="none" stroke="#231F20" stroke-width="26" stroke-miterlimit="10" d="M-1843.573,1301.338
		c-7.628-7.693-18.204-12.459-29.893-12.459c-23.246,0-42.095,18.844-42.095,42.09v49.751"/>
</g>
<g>
	<circle fill="#231F20" cx="-1873.468" cy="1330.97" r="16.273"/>
</g>
<g>
	<path fill="none" stroke="#231F20" stroke-width="26" stroke-miterlimit="10" d="M-1805.135,1325.676"/>
	<path fill="none" stroke="#231F20" stroke-width="26" stroke-miterlimit="10" d="M-1798.3,1301.137
		c1.334,9.666-1.467,18.818-6.835,24.539l-1.93,1.897l-91.777,84.146l-2.059,1.75c-5.916,4.988-13.555,8-21.899,8
		s-15.983-3.012-21.899-8c-6.74-5.684-11.234-13.938-11.98-23.253v-59.246c0-45.814,37.276-83.088,83.095-83.088
		c22.331,0,43.287,8.734,59.009,24.593C-1814.576,1272.476-1800.168,1287.598-1798.3,1301.137z"/>
</g>
<polygon fill="#231F20" points="-546.5,1397 -578.5,1358.5 -615.045,1549 -544.545,1549 -512.545,1587.5 -476,1397 "/>
<polygon fill="#231F20" points="-648.687,1438.271 -646.653,1502.33 -450.404,1532.835 -436.999,1428.334 "/>
<polygon fill="#E12CF4" points="-708.753,-599.217 -706.72,-535.157 -510.471,-504.652 -497.066,-609.153 "/>
<polygon fill="#E12CF4" points="-606.566,-639.487 -638.566,-677.987 -675.111,-487.487 -604.611,-487.487 -572.611,-448.987 
	-536.066,-639.487 "/>
<ellipse fill="#FFFFFF" cx="-627.399" cy="-565.82" rx="10.333" ry="21"/>
<ellipse fill="#FFFFFF" cx="-588.066" cy="-568.487" rx="10.333" ry="21"/>
<polygon fill="#E12CF4" points="-441.252,-603.216 -439.218,-539.156 -242.969,-508.651 -229.564,-613.152 "/>
<polygon fill="#E12CF4" points="-355.307,-639.516 -394.806,-670.275 -389.734,-476.368 -320.867,-491.457 -281.368,-460.697 
	-286.44,-654.604 "/>
<ellipse fill="#FFFFFF" cx="-359.897" cy="-569.152" rx="10.333" ry="21"/>
<ellipse fill="#FFFFFF" cx="-320.564" cy="-569.152" rx="10.334" ry="21"/>
<polygon fill="#E12CF4" points="-839.899,-347.512 -852.22,-283.182 -655.971,-252.677 -635.899,-357.012 "/>
<polygon fill="#E12CF4" points="-751.066,-382.012 -783.066,-420.512 -817.399,-242.012 -749.111,-230.012 -717.111,-191.512 
	-678.399,-389.512 "/>
<ellipse fill="#FFFFFF" cx="-771.899" cy="-312.345" rx="10.333" ry="21"/>
<ellipse fill="#FFFFFF" cx="-732.566" cy="-315.012" rx="10.333" ry="21"/>
<g>
	<polygon fill="#8D12DD" points="-674.369,511.453 -691.745,602.178 -633.221,611.274 -613.475,508.617 	"/>
	<polygon fill="#8D12DD" points="-386.667,498.055 -456.2,501.292 -482.289,634.736 -414.974,645.199 	"/>
	<polygon fill="#8D12DD" points="-445,446.5 -553,458 -594.218,408.5 -613.475,508.617 -456.2,501.292 	"/>
</g>
<path fill="#8D12DD" d="M-567.844,566.034c-4.146,20.031-13.947,34.937-21.891,33.294c-7.945-1.646-11.029-19.216-6.883-39.248
	c4.145-20.031,13.947-34.938,21.889-33.294C-566.78,528.43-563.699,546.002-567.844,566.034z"/>
<ellipse transform="matrix(0.9889 0.1489 -0.1489 0.9889 78.5382 84.3167)" fill="#8D12DD" cx="-523.855" cy="566.691" rx="16.002" ry="42.324"/>
<g>
	<polygon fill="#8D12DD" points="-730.932,-1043.521 -743.253,-979.191 -701.755,-972.741 -687.754,-1045.532 	"/>
	<polygon fill="#8D12DD" points="-526.932,-1053.021 -576.236,-1050.725 -594.735,-956.105 -547.004,-948.686 	"/>
	<g>
		<path fill="#8D12DD" d="M-706.544-947.841c-1.04,5.401,2.544,10.6,7.96,11.551l48.59,8.539c5.418,0.951,12.727,5.191,16.242,9.421
			l19.215,23.119c3.516,4.229,7.256,3.274,8.312-2.124l9.571-48.955c1.055-5.398-2.527-10.506-7.963-11.351l-87.256-13.563
			c-5.436-0.845-10.731,2.883-11.771,8.283L-706.544-947.841z"/>
	</g>
	<g>
		<path fill="#8D12DD" d="M-571.352-1075.707c1.055-5.397-2.558-9.352-8.029-8.787l-52.771,5.446
			c-5.471,0.565-12.824-2.434-16.34-6.664l-19.215-23.119c-3.516-4.229-7.242-3.271-8.281,2.129l-9.877,51.35
			c-1.039,5.4,2.606,9.609,8.102,9.354l91.538-4.262c5.494-0.256,10.853-4.883,11.907-10.279L-571.352-1075.707z"/>
	</g>
</g>
<ellipse transform="matrix(0.9926 0.1216 -0.1216 0.9926 -127.2726 73.0698)" fill="#8D12DD" cx="-662.299" cy="-1006.212" rx="9.488" ry="23.92"/>
<ellipse transform="matrix(0.9954 0.0959 -0.0959 0.9954 -99.3449 55.274)" fill="#8D12DD" cx="-624.599" cy="-1005.687" rx="10.334" ry="27.333"/>
<polyline fill="#8D12DD" points="-687.754,-1045.532 -682.932,-1070.021 -669.516,-1053.271 -675.766,-1046.021 "/>
<polyline fill="#8D12DD" points="-573.266,-1066.021 -576.236,-1050.725 -592.598,-1050.021 "/>
<polyline fill="#8D12DD" points="-598.516,-936.771 -594.735,-956.105 -613.266,-958.771 -608.016,-945.521 "/>
<polyline fill="#8D12DD" points="-705.016,-955.771 -701.755,-972.741 -686.266,-970.271 "/>
<g>
	<polygon fill="#8D12DD" points="-642.638,660.24 -543.666,680.333 -501.201,731.461 -485.068,648.951 -635.572,623.499 	"/>
	<polygon fill="#6C0FB5" points="-633.221,611.274 -635.572,623.499 -485.068,648.951 -482.289,634.736 	"/>
</g>
<text transform="matrix(1 0 0 1 -2498.2236 -120.5542)" font-family="'Scandia-Bold'" font-size="141.6179">FanSubs</text>
<text transform="matrix(1 0 0 1 1960.9551 731.4141)" font-family="'BCAlphapipeRB-Bold'" font-size="125.0583">FanSubs</text>
<g>
	<g>
		<path fill="#8D12DD" d="M1883.893,254.688h-16.698v-31.953c0-19.509,15.872-35.381,35.384-35.381
			c9.509,0,18.432,3.719,25.128,10.472l-11.858,11.758c-3.537-3.567-8.25-5.531-13.27-5.531c-10.305,0-18.686,8.38-18.686,18.682
			V254.688z"/>
	</g>
</g>
<g>
	<g>
		<circle fill="#8D12DD" cx="1902.578" cy="222.736" r="10.451"/>
	</g>
</g>
<g>
	<g>
		<path fill="#8D12DD" d="M1946.464,219.336"/>
	</g>
	<g>
		<path fill="#8D12DD" d="M1870.894,289.208c-7.106,0-14.013-2.523-19.446-7.105c-6.213-5.237-9.987-12.57-10.637-20.65
			l-0.025-0.667v-38.05c0-34.028,27.687-61.712,61.717-61.712c16.587,0,32.148,6.487,43.828,18.265l0.115,0.119
			c1.135,1.193,11.152,11.98,12.68,23.025c1.176,8.522-1.281,16.976-6.572,22.615l-0.234,0.239l-1.452,1.42l-59.059,54.149
			l-1.441,1.225C1884.907,286.686,1878.002,289.208,1870.894,289.208z M1857.482,260.414c0.356,3.486,2.026,6.646,4.729,8.925
			c2.461,2.075,5.462,3.171,8.682,3.171c3.218,0,6.222-1.096,8.683-3.171l1.178-1.001l58.72-53.839l0.99-0.973
			c1.76-1.957,2.589-5.395,2.118-8.809c-0.617-4.474-5.826-11.25-8.172-13.731c-8.512-8.553-19.84-13.263-31.908-13.263
			c-24.822,0-45.02,20.194-45.02,45.014V260.414z"/>
	</g>
</g>
<text transform="matrix(1 0 0 1 399.4951 -343.1699)" stroke="#000000" stroke-width="3" stroke-miterlimit="10" font-family="'DolceVitaHeavy-Bold'" font-size="179.7011" letter-spacing="3">FanSubs</text>
<text transform="matrix(1 0 0 1 105.5986 -727.5215)" font-family="'CenturyGothic-Bold'" font-size="201.4166" letter-spacing="4">fansubs</text>
<text transform="matrix(1 0 0 1 -2114.4717 -535.3281)" font-family="'CostaStd-Bold'" font-size="201.4166" letter-spacing="4">fansubs</text>
<text transform="matrix(1 0 0 1 1544.7734 -120.5542)" font-family="'Comfortaa-Regular'" font-size="172.4478">fbs</text>
<path d="M1997.118,436.675h-8.786c0.154-2.11,0.565-4.014,1.229-5.681c0.746-1.884,1.82-3.294,3.283-4.31
	c1.408-0.98,3.337-1.477,5.725-1.477c2.383,0,4.518-0.792,6.168-2.292c1.772-1.611,2.71-3.733,2.71-6.139
	c0-2.402-0.937-4.524-2.716-6.145c-1.651-1.497-3.783-2.287-6.162-2.287c-5.897,0-11.021,1.34-15.232,3.982
	c-4.245,2.665-7.487,6.423-9.638,11.17c-1.759,3.884-2.772,8.307-3.021,13.177l-0.06,16.528v38.55c0,3.263,1.43,5.311,2.626,6.452
	c1.661,1.586,3.745,2.424,6.028,2.424c3.302,0,5.353-1.357,6.492-2.496c1.138-1.14,2.497-3.172,2.497-6.38v-38.55h8.856
	c3.026,0,4.958-1.298,6.045-2.386c1.562-1.56,2.386-3.573,2.386-5.822c0-2.318-0.823-4.37-2.389-5.938
	C2002.07,437.971,2000.139,436.675,1997.118,436.675z"/>
<text transform="matrix(1 0 0 1 2003.6865 499.9844)" font-family="'BCAlphapipeRB-Bold'" font-size="125.0583">ansubs</text>
<g>
	<g>
		<path fill="#8D12DD" d="M1876.045,715.125h-16.029v-30.674c0-18.728,15.238-33.964,33.967-33.964
			c9.128,0,17.694,3.569,24.122,10.053l-11.384,11.286c-3.394-3.425-7.918-5.31-12.738-5.31c-9.891,0-17.938,8.047-17.938,17.935
			V715.125z"/>
	</g>
</g>
<g>
	<g>
		<circle fill="#8D12DD" cx="1893.982" cy="684.451" r="10.032"/>
	</g>
</g>
<g>
	<g>
		<path fill="#8D12DD" d="M1936.111,681.188"/>
	</g>
	<g>
		<path fill="#8D12DD" d="M1863.566,748.263c-6.822,0-13.452-2.422-18.668-6.82c-5.961-5.027-9.588-12.066-10.209-19.823
			l-0.025-0.639v-36.528c0-32.665,26.577-59.24,59.244-59.24c15.923,0,30.864,6.227,42.074,17.534l0.11,0.114
			c1.092,1.146,10.708,11.501,12.172,22.104c1.129,8.181-1.229,16.295-6.309,21.709l-0.226,0.229l-1.393,1.363l-56.695,51.98
			l-1.383,1.176C1877.021,745.841,1870.39,748.263,1863.566,748.263z M1850.694,720.621c0.34,3.347,1.942,6.381,4.536,8.567
			c2.363,1.992,5.247,3.044,8.336,3.044c3.091,0,5.974-1.052,8.336-3.044l1.129-0.961l56.37-51.683l0.95-0.934
			c1.689-1.88,2.486-5.18,2.033-8.456c-0.592-4.295-5.592-10.8-7.844-13.183c-8.17-8.21-19.046-12.731-30.633-12.731
			c-23.828,0-43.214,19.386-43.214,43.211V720.621z"/>
	</g>
</g>
<text transform="matrix(1 0 0 1 1970.6191 271.1699)" font-family="'CenturyGothic-Bold'" font-size="130.2742">FanSubs</text>
<g>
	<g>
		<path fill="#8D12DD" d="M1872.014,970.085h-16.028v-30.672c0-18.729,15.238-33.965,33.966-33.965
			c9.129,0,17.695,3.57,24.123,10.053l-11.384,11.286c-3.394-3.424-7.918-5.31-12.739-5.31c-9.89,0-17.938,8.046-17.938,17.936
			V970.085z"/>
	</g>
</g>
<g>
	<g>
		<circle fill="#8D12DD" cx="1889.952" cy="939.413" r="10.033"/>
	</g>
</g>
<g>
	<g>
		<path fill="#8D12DD" d="M1932.08,936.148"/>
	</g>
	<g>
		<path fill="#8D12DD" d="M1859.535,1003.224c-6.82,0-13.451-2.422-18.668-6.82c-5.96-5.026-9.588-12.067-10.208-19.823l-0.026-0.64
			v-36.527c0-32.665,26.579-59.24,59.247-59.24c15.921,0,30.862,6.227,42.071,17.533l0.111,0.115
			c1.092,1.146,10.709,11.5,12.172,22.103c1.129,8.181-1.229,16.296-6.31,21.709l-0.223,0.23l-1.396,1.363l-56.695,51.98
			l-1.382,1.176C1872.989,1000.802,1866.359,1003.224,1859.535,1003.224z M1846.666,975.582c0.338,3.347,1.941,6.381,4.535,8.567
			c2.363,1.992,5.245,3.045,8.334,3.045c3.092,0,5.974-1.053,8.338-3.045l1.129-0.961l56.369-51.684l0.95-0.934
			c1.688-1.879,2.486-5.179,2.032-8.455c-0.592-4.296-5.592-10.801-7.844-13.183c-8.169-8.21-19.045-12.731-30.63-12.731
			c-23.831,0-43.214,19.385-43.214,43.211V975.582z"/>
	</g>
</g>
<path d="M2002.568,923.979h-19.114c0.153-2.11,0.565-4.015,1.228-5.681c0.748-1.885,1.822-3.295,3.283-4.311
	c1.41-0.979,3.338-1.477,5.726-1.477c2.384,0,4.519-0.792,6.168-2.291c1.772-1.611,2.71-3.734,2.71-6.14
	c0-2.402-0.936-4.524-2.715-6.145c-1.652-1.497-3.783-2.287-6.163-2.287c-5.897,0-11.022,1.34-15.233,3.982
	c-4.244,2.665-7.486,6.423-9.637,11.171c-1.759,3.884-2.771,8.307-3.02,13.177l-0.061,16.528v38.55c0,3.263,1.43,5.311,2.627,6.452
	c1.66,1.586,3.744,2.424,6.027,2.424c3.301,0,5.352-1.357,6.492-2.496c1.139-1.14,2.498-3.172,2.498-6.38v-38.55h19.184
	c3.025,0,4.959-1.298,6.045-2.386c1.561-1.56,2.387-3.573,2.387-5.822c0-2.318-0.824-4.37-2.389-5.938
	C2007.521,925.274,2005.59,923.979,2002.568,923.979z"/>
<g>
	<path d="M2012.166,955.397c0-18.509,13.256-33.141,30.89-33.141c6.878,0,13.257,2.376,18.384,6.253
		c1.126-3.627,4.502-6.253,8.504-6.253c4.878,0,8.755,3.876,8.755,8.754v48.773c0,4.878-3.877,8.755-8.755,8.755
		c-4.002,0-7.378-2.627-8.504-6.253c-5.127,4.002-11.506,6.253-18.384,6.253C2025.422,988.539,2012.166,973.906,2012.166,955.397z
		 M2061.189,955.397c0-9.63-6.879-16.883-15.633-16.883c-8.879,0-15.758,7.253-15.758,16.883c0,9.755,6.879,16.883,15.758,16.883
		C2054.311,972.28,2061.189,965.152,2061.189,955.397z"/>
	<path d="M2093.702,951.646c0-17.634,12.632-29.389,28.763-29.389c16.133,0,28.765,11.755,28.765,29.389v28.139
		c0,4.878-3.876,8.755-8.755,8.755c-4.877,0-8.754-3.877-8.754-8.755v-28.764c0-8.129-5.002-12.506-11.256-12.506
		c-6.252,0-11.255,4.377-11.255,12.506v28.764c0,4.878-3.876,8.755-8.754,8.755c-4.877,0-8.754-3.877-8.754-8.755V951.646z"/>
	<path d="M2220.009,931.011c0-4.878,3.876-8.754,8.753-8.754c4.879,0,8.755,3.876,8.755,8.754v28.764
		c0,8.129,5.003,12.506,11.256,12.506s11.255-4.377,11.255-12.506v-28.764c0-4.878,3.878-8.754,8.755-8.754
		c4.878,0,8.753,3.876,8.753,8.754v28.139c0,17.634-12.63,29.39-28.763,29.39s-28.764-11.756-28.764-29.39V931.011z"/>
	<path d="M2309.674,982.286c-1,3.626-4.377,6.253-8.379,6.253c-4.877,0-8.754-3.877-8.754-8.755v-72.535
		c0-4.877,3.877-8.754,8.754-8.754c4.878,0,8.754,3.877,8.754,8.754v21.01c5.003-3.751,11.256-6.002,18.135-6.002
		c17.633,0,30.89,14.632,30.89,33.141s-13.257,33.142-30.89,33.142C2321.18,988.539,2314.801,986.288,2309.674,982.286z
		 M2341.439,955.397c0-9.63-6.878-16.883-15.758-16.883c-8.629,0-15.382,7.003-15.633,16.258v1.375
		c0.251,9.38,7.004,16.133,15.633,16.133C2334.562,972.28,2341.439,965.152,2341.439,955.397z"/>
</g>
<g>
	
		<text transform="matrix(0.843 0 0 1 2159.0781 984.001)" stroke="#000000" stroke-width="10" stroke-miterlimit="10" font-family="'Comfortaa-Regular'" font-size="93.0726">S</text>
</g>
<g>
	
		<text transform="matrix(0.843 0 0 1 2362.4775 984.6338)" stroke="#000000" stroke-width="8" stroke-miterlimit="10" font-family="'Comfortaa-Regular'" font-size="108.4794">s</text>
</g>
<path d="M2012.166,904.097c0,4.674-3.791,8.464-8.464,8.464h-11.919c-4.673,0-8.462-3.79-8.462-8.464l0,0
	c0-4.674,3.789-8.463,8.462-8.463h11.919C2008.375,895.634,2012.166,899.423,2012.166,904.097L2012.166,904.097z"/>
<text transform="matrix(1 0 0 1 2546.6191 515.9199)" font-family="'CenturyGothic-Bold'" font-size="130.2742">FANSUBS</text>
<text transform="matrix(1 0 0 1 424.4463 -39.8525)" font-family="'CenturyGothic-Bold'" font-size="130.2742">FANSUBS</text>
<path d="M1580.438-689.943h46.436v17.365h-28.752v16.984h28.752v17.11h-28.752v42.11h-17.684V-689.943z"/>
<path d="M1719.926-689.943h17.086l40.037,61.574v-61.574h17.811v93.57h-17.133l-39.988-61.385v61.385h-17.813V-689.943z"/>
<path d="M1865.341-677.223l-13.191,11.642c-4.632-6.446-9.347-9.669-14.147-9.669c-2.337,0-4.248,0.626-5.734,1.877
	c-1.487,1.251-2.23,2.661-2.23,4.229c0,1.569,0.53,3.054,1.593,4.453c1.444,1.866,5.798,5.874,13.062,12.022
	c6.797,5.684,10.918,9.266,12.363,10.75c3.609,3.647,6.169,7.135,7.678,10.464c1.508,3.329,2.262,6.966,2.262,10.909
	c0,7.676-2.653,14.016-7.96,19.02c-5.308,5.004-12.226,7.506-20.759,7.506c-6.665,0-12.471-1.633-17.416-4.898
	c-4.946-3.265-9.182-8.396-12.704-15.393l14.97-9.033c4.504,8.27,9.686,12.404,15.546,12.404c3.058,0,5.628-0.891,7.709-2.672
	s3.122-3.838,3.122-6.17c0-2.121-0.786-4.24-2.357-6.361c-1.573-2.12-5.034-5.364-10.387-9.732
	c-10.195-8.311-16.781-14.727-19.754-19.242c-2.974-4.517-4.46-9.021-4.46-13.518c0-6.488,2.474-12.054,7.42-16.697
	c4.944-4.644,11.048-6.966,18.31-6.966c4.67,0,9.119,1.081,13.343,3.244S1860.415-682.947,1865.341-677.223z"/>
<path d="M1883.342-689.943h17.875v60.508c0,5.212,0.455,8.898,1.368,11.059c0.911,2.162,2.417,3.889,4.517,5.182
	c2.099,1.291,4.632,1.938,7.601,1.938c3.138,0,5.842-0.72,8.11-2.16c2.269-1.441,3.838-3.273,4.707-5.498s1.305-6.473,1.305-12.744
	v-58.283h17.874v55.785c0,9.415-0.53,15.945-1.591,19.593c-1.06,3.647-3.084,7.167-6.074,10.56
	c-2.989,3.393-6.436,5.905-10.337,7.537c-3.901,1.633-8.438,2.449-13.612,2.449c-6.785,0-12.689-1.559-17.716-4.676
	c-5.024-3.116-8.619-7.018-10.781-11.703c-2.163-4.686-3.245-12.605-3.245-23.76V-689.943z"/>
<path d="M1967.372-596.373v-93.57h14.712c8.534,0,14.775,0.551,18.725,1.653c5.604,1.485,10.063,4.241,13.375,8.269
	c3.311,4.029,4.968,8.779,4.968,14.25c0,3.562-0.754,6.796-2.259,9.7c-1.506,2.905-3.954,5.63-7.348,8.174
	c5.684,2.671,9.839,6.011,12.469,10.019c2.629,4.008,3.943,8.746,3.943,14.217c0,5.259-1.358,10.051-4.076,14.376
	c-2.717,4.325-6.219,7.56-10.506,9.7c-4.288,2.143-10.211,3.213-17.768,3.213H1967.372z M1985.184-672.96v19.72h3.895
	c4.342,0,7.566-0.912,9.674-2.736c2.107-1.822,3.16-4.303,3.16-7.441c0-2.927-1-5.248-3.002-6.966c-2-1.718-5.043-2.576-9.129-2.576
	H1985.184z M1985.184-637.338v23.98h4.464c7.397,0,12.386-0.932,14.958-2.799c2.572-1.865,3.859-4.58,3.859-8.142
	c0-4.028-1.51-7.209-4.529-9.542c-3.02-2.332-8.037-3.498-15.053-3.498H1985.184z"/>
<path d="M2092.049-677.223l-13.191,11.642c-4.631-6.446-9.348-9.669-14.148-9.669c-2.336,0-4.248,0.626-5.732,1.877
	c-1.488,1.251-2.232,2.661-2.232,4.229c0,1.569,0.531,3.054,1.594,4.453c1.444,1.866,5.799,5.874,13.063,12.022
	c6.795,5.684,10.917,9.266,12.361,10.75c3.61,3.647,6.17,7.135,7.678,10.464c1.509,3.329,2.263,6.966,2.263,10.909
	c0,7.676-2.653,14.016-7.96,19.02s-12.225,7.506-20.759,7.506c-6.665,0-12.472-1.633-17.416-4.898
	c-4.946-3.265-9.181-8.396-12.704-15.393l14.971-9.033c4.503,8.27,9.684,12.404,15.545,12.404c3.058,0,5.627-0.891,7.709-2.672
	c2.081-1.781,3.121-3.838,3.121-6.17c0-2.121-0.785-4.24-2.356-6.361c-1.573-2.12-5.034-5.364-10.387-9.732
	c-10.195-8.311-16.78-14.727-19.755-19.242c-2.973-4.517-4.459-9.021-4.459-13.518c0-6.488,2.473-12.054,7.42-16.697
	c4.945-4.644,11.049-6.966,18.31-6.966c4.671,0,9.118,1.081,13.343,3.244C2082.548-686.891,2087.123-682.947,2092.049-677.223z"/>
<line fill="none" stroke="#000000" stroke-width="18" stroke-miterlimit="10" x1="1645.008" y1="-629.736" x2="1683.795" y2="-629.736"/>
<g>
	<g>
		<path fill="#8D12DD" d="M1488.723-615.157h-16.029v-30.674c0-18.728,15.238-33.964,33.967-33.964
			c9.128,0,17.694,3.569,24.122,10.053l-11.384,11.286c-3.394-3.425-7.918-5.31-12.738-5.31c-9.891,0-17.938,8.047-17.938,17.935
			V-615.157z"/>
	</g>
</g>
<g>
	<g>
		<circle fill="#8D12DD" cx="1506.659" cy="-645.831" r="10.032"/>
	</g>
</g>
<g>
	<g>
		<path fill="#8D12DD" d="M1548.789-649.094"/>
	</g>
	<g>
		<path fill="#8D12DD" d="M1476.244-582.02c-6.822,0-13.452-2.422-18.668-6.82c-5.961-5.027-9.588-12.066-10.209-19.823
			l-0.025-0.639v-36.528c0-32.665,26.577-59.24,59.244-59.24c15.923,0,30.864,6.227,42.074,17.534l0.11,0.114
			c1.091,1.146,10.708,11.501,12.172,22.104c1.129,8.181-1.229,16.295-6.309,21.709l-0.226,0.229l-1.393,1.363l-56.695,51.98
			l-1.383,1.176C1489.698-584.441,1483.067-582.02,1476.244-582.02z M1463.372-609.661c0.339,3.347,1.942,6.381,4.536,8.567
			c2.363,1.992,5.247,3.044,8.336,3.044c3.091,0,5.974-1.052,8.336-3.044l1.129-0.961l56.369-51.683l0.951-0.934
			c1.689-1.88,2.486-5.18,2.033-8.456c-0.592-4.295-5.592-10.8-7.844-13.183c-8.17-8.21-19.046-12.731-30.633-12.731
			c-23.828,0-43.214,19.386-43.214,43.211V-609.661z"/>
	</g>
</g>
<g>
	<g>
		<path fill="#8D12DD" d="M697.921,776.679h-90.396V603.697c0-105.611,85.936-191.535,191.552-191.535
			c51.477,0,99.785,20.129,136.033,56.69L870.912,532.5c-19.138-19.313-44.651-29.942-71.835-29.942
			c-55.777,0-101.156,45.379-101.156,101.14V776.679z"/>
	</g>
</g>
<g>
	<g>
		<path fill="#8D12DD" d="M855.647,603.697c0,31.253-25.328,56.585-56.57,56.585c-31.243,0-56.582-25.332-56.582-56.585
			c0-31.236,25.339-56.569,56.582-56.569C830.319,547.128,855.647,572.461,855.647,603.697z"/>
	</g>
</g>
<g>
	<g>
		<path fill="#8D12DD" d="M1036.657,585.297"/>
	</g>
	<g>
		<path fill="#8D12DD" d="M627.55,963.554c-38.473,0-75.86-13.658-105.275-38.462c-33.616-28.352-54.07-68.048-57.57-111.792
			l-0.145-3.602V603.702c0-184.21,149.877-334.077,334.1-334.077c89.795,0,174.055,35.114,237.271,98.882l0.623,0.644
			c6.149,6.459,60.385,64.858,68.641,124.65c6.365,46.133-6.935,91.892-35.576,122.425l-1.273,1.294l-7.853,7.688L740.767,918.344
			l-7.799,6.631C703.423,949.896,666.03,963.554,627.55,963.554z M554.958,807.672c1.913,18.874,10.957,35.985,25.583,48.313
			c13.326,11.235,29.589,17.167,47.009,17.167c17.43,0,33.687-5.932,47.01-17.167l6.365-5.418L998.813,559.11l5.362-5.265
			c9.527-10.601,14.023-29.21,11.467-47.687c-3.338-24.221-31.535-60.904-44.234-74.342
			c-46.074-46.298-107.405-71.797-172.748-71.797c-134.377,0-243.701,109.324-243.701,243.682V807.672z"/>
	</g>
</g>
<g>
	<path fill="none" stroke="#000000" stroke-width="18" stroke-miterlimit="10" d="M-443.936-190.238v-68.805
		c0-7.7-3.77-8.953-8.379-2.784l-67.196,89.939"/>
</g>
<rect x="-586.511" y="-189.024" fill="#FFFFFF" width="329.511" height="83.137"/>
<path d="M-267.055-274.595h17.874v51.508c0,5.212,0.455,8.898,1.368,11.059c0.91,2.162,2.417,3.889,4.516,5.182
	c2.1,1.291,4.633,1.938,7.602,1.938c3.138,0,5.842-0.72,8.109-2.16c2.27-1.441,3.839-3.273,4.708-5.498s1.304-6.473,1.304-12.744
	v-49.283h17.875v46.785c0,9.415-0.53,15.945-1.59,19.593c-1.061,3.647-3.085,7.167-6.075,10.56
	c-2.989,3.393-6.436,5.905-10.337,7.537c-3.902,1.633-8.439,2.449-13.612,2.449c-6.785,0-12.69-1.559-17.716-4.676
	c-5.024-3.116-8.619-7.018-10.781-11.703c-2.163-4.686-3.244-12.605-3.244-23.76V-274.595z"/>
<line fill="none" stroke="#000000" stroke-width="18" stroke-miterlimit="10" x1="-485.723" y1="-215.388" x2="-446.936" y2="-215.388"/>
<g>
	<path fill="none" stroke="#000000" stroke-width="18" stroke-miterlimit="10" d="M-409.672-189.024v-70.226
		c0-7.7,3.537-8.787,7.861-2.415l41.277,60.83c4.324,6.372,7.861,5.285,7.861-2.415v-70.5"/>
</g>
<g>
	<path fill="none" stroke="#000000" stroke-width="18" stroke-miterlimit="10" d="M-540.672-189.024v-64.226c0-7.7,6.3-14,14-14
		h21.814"/>
</g>
<line fill="none" stroke="#000000" stroke-width="18" stroke-miterlimit="10" x1="-540.672" y1="-231.25" x2="-504.857" y2="-231.25"/>
<path d="M-278.926-219.235c-0.803-3.861-2.282-7.268-4.436-10.221c-2.156-2.952-5.371-5.845-9.649-8.681
	c-1.499-1.013-5.333-3.18-11.483-6.498c-2.609-1.556-4.375-2.726-5.286-3.504c-1.325-1.154-2.146-2.499-2.466-4.036
	c-0.32-1.534,0.12-3.067,1.321-4.595c1.2-1.527,2.944-2.529,5.233-3.006c4.699-0.978,9.971,1.218,15.82,6.585l10.543-14.084
	c-5.988-4.602-11.271-7.53-15.848-8.788s-9.15-1.41-13.723-0.458c-7.109,1.479-12.611,4.995-16.508,10.549
	s-5.185,11.506-3.863,17.859c0.916,4.4,3.288,8.509,7.12,12.325c1.628,1.622,3.978,3.45,7.025,5.479c0,0,2.214,1.568,3.472,2.221
	c0.041,0.021,0.076,0.04,0.115,0.061c2.625,1.603,5.625,3.313,9.018,5.136l0.004-0.006c1.283,0.837,2.291,1.579,3.016,2.223
	c1.972,1.757,3.172,3.672,3.605,5.748c0.475,2.283-0.127,4.509-1.801,6.677c-1.676,2.168-4.01,3.563-7.004,4.187
	c-5.738,1.193-11.652-1.8-17.746-8.979l-12.816,11.893c4.875,6.133,10.064,10.293,15.572,12.482
	c5.508,2.19,11.523,2.606,18.051,1.248c8.354-1.737,14.617-5.596,18.793-11.576C-278.668-204.974-277.363-211.721-278.926-219.235z"
	/>
<path d="M-75.926-219.235c-0.803-3.861-2.282-7.268-4.436-10.221c-2.156-2.952-5.371-5.845-9.649-8.681
	c-1.499-1.013-5.333-3.18-11.483-6.498c-2.609-1.556-4.375-2.726-5.286-3.504c-1.325-1.154-2.146-2.499-2.466-4.036
	c-0.32-1.534,0.12-3.067,1.321-4.595c1.2-1.527,2.944-2.529,5.233-3.006c4.699-0.978,9.971,1.218,15.82,6.585l10.543-14.084
	c-5.988-4.602-11.271-7.53-15.848-8.788s-9.15-1.41-13.723-0.458c-7.109,1.479-12.611,4.995-16.508,10.549
	s-5.185,11.506-3.863,17.859c0.916,4.4,3.288,8.509,7.12,12.325c1.628,1.622,3.978,3.45,7.025,5.479c0,0,2.214,1.568,3.472,2.221
	c0.041,0.021,0.076,0.04,0.115,0.061c2.625,1.603,5.625,3.313,9.018,5.136l0.004-0.006c1.283,0.837,2.291,1.579,3.016,2.223
	c1.972,1.757,3.172,3.672,3.605,5.748c0.475,2.283-0.127,4.509-1.801,6.677c-1.676,2.168-4.01,3.563-7.004,4.187
	c-5.738,1.193-11.652-1.8-17.746-8.979l-12.816,11.893c4.875,6.133,10.064,10.293,15.572,12.482
	c5.508,2.19,11.523,2.606,18.051,1.248c8.354-1.737,14.617-5.596,18.793-11.576C-75.668-204.974-74.363-211.721-75.926-219.235z"/>
<path fill="none" stroke="#000000" stroke-width="17" stroke-miterlimit="10" d="M-164.672-199.043
	c10.31,0,18.668-8.357,18.668-18.666c0-10.31-7.995-17.304-18.305-17.304h-19.666l-0.363,35.97H-164.672z"/>
<path fill="none" stroke="#000000" stroke-width="17" stroke-miterlimit="10" d="M-165.371-236.676
	c7.934,0,14.002-7.795,14.002-15.728c0-7.935-6.432-14.366-14.365-14.366h-18.604l0.363,30.094H-165.371z"/>
</svg>
