<svg width="105" height="78" viewBox="0 0 105 78" fill="none" xmlns="http://www.w3.org/2000/svg">
<g clip-path="url(#clip0_408_1925)">
<path d="M101.407 13.7517C93.1313 9.20309 84.1776 5.23476 74.9829 2.95547C70.9135 1.94234 66.4259 1.49162 62.5947 3.55999C59.0867 5.44786 56.9519 9.05526 55.5551 12.6581C53.9269 16.8627 52.9978 21.3388 52.0763 25.7337C51.0446 30.6648 50.1266 35.6195 48.8188 40.4874C46.6868 48.4516 43.3307 56.4801 37.3985 62.3828C30.1848 69.5592 20.0923 71.5692 10.4186 73.106C9.64893 73.2244 8.66655 73.0521 8.08728 72.4959C7.61409 72.0445 7.66716 71.4519 8.38821 71.3338C17.2672 69.8019 26.6079 68.186 33.4781 61.8556C39.8726 55.9662 43.3488 47.6773 45.5521 39.4368C46.8676 34.5121 47.8014 29.4924 48.8652 24.5043C49.8344 19.9468 50.8109 15.2757 52.625 10.9645C54.1114 7.43411 56.2885 4.1104 59.6744 2.15839C63.6179 -0.121619 68.4517 -0.0706002 72.7874 0.729927C78.0569 1.71124 83.2022 3.58577 88.1696 5.54253C93.4134 7.61927 98.5215 10.0376 103.461 12.7491C103.982 13.0298 104.391 13.6601 103.761 14.0453C103.131 14.4305 102.002 14.0725 101.407 13.7517Z" fill="#8120D5"/>
<path d="M23.9651 77.4839C19.7941 77.0961 15.6313 76.7083 11.4603 76.3124C9.5128 76.1298 7.54135 76.0123 5.60143 75.7485C3.88067 75.5158 2.06093 75.016 0.828292 73.7256C0.681357 73.5724 0.371222 73.2579 0.483089 72.9895C1.40276 70.9068 3.11331 69.5007 4.79918 68.0379C6.67867 66.4117 8.53362 64.7532 10.3723 63.0786C14.0979 59.6803 17.7255 56.1691 21.2633 52.5691C22.037 51.7855 25.0934 52.9185 24.2474 53.8081C20.8714 57.3583 17.3894 60.7956 13.8012 64.1281C12.0272 65.7699 10.2288 67.3875 8.40587 68.9809C6.74418 70.4192 4.8065 71.8186 3.88668 73.8769L3.54148 73.1408C4.44761 74.0925 5.97953 73.9531 7.19673 74.0673L12.5524 74.5612C16.1877 74.8956 19.8312 75.238 23.4666 75.5723C24.0832 75.6252 25.294 75.999 25.4201 76.7284C25.5547 77.4983 24.4113 77.5136 23.9407 77.4759L23.9651 77.4839Z" fill="#8120D5"/>
</g>
<defs>
<clipPath id="clip0_408_1925">
<rect width="104" height="77" fill="white" transform="matrix(-0.999981 0.00622941 0.00622941 0.999981 103.998 0)"/>
</clipPath>
</defs>
</svg>
