<svg width="105" height="78" viewBox="0 0 105 78" fill="none" xmlns="http://www.w3.org/2000/svg">
<g clip-path="url(#clip0_408_1868)">
<path d="M3.07042 13.7517C11.3466 9.20309 20.3004 5.23476 29.495 2.95547C33.5644 1.94234 38.052 1.49162 41.8833 3.55999C45.3912 5.44786 47.526 9.05526 48.9228 12.6581C50.551 16.8627 51.4801 21.3388 52.4016 25.7337C53.4333 30.6648 54.3513 35.6195 55.6591 40.4874C57.7911 48.4516 61.1472 56.4801 67.0794 62.3828C74.2931 69.5592 84.3856 71.5692 94.0593 73.106C94.829 73.2244 95.8114 73.0521 96.3906 72.4959C96.8638 72.0445 96.8107 71.4519 96.0897 71.3338C87.2107 69.8019 77.87 68.186 70.9998 61.8556C64.6053 55.9662 61.1291 47.6773 58.9258 39.4368C57.6103 34.5121 56.6765 29.4924 55.6127 24.5043C54.6436 19.9468 53.667 15.2757 51.8529 10.9645C50.3665 7.43411 48.1894 4.1104 44.8035 2.15839C40.86 -0.121619 36.0262 -0.0706002 31.6905 0.729927C26.421 1.71124 21.2757 3.58577 16.3083 5.54253C11.0645 7.61927 5.95637 10.0376 1.01674 12.7491C0.495952 13.0298 0.0865279 13.6601 0.716704 14.0453C1.34688 14.4305 2.47639 14.0725 3.07042 13.7517Z" fill="#8120D5"/>
<path d="M80.5126 77.4839C84.6835 77.0961 88.8464 76.7083 93.0173 76.3124C94.9649 76.1298 96.9363 76.0123 98.8762 75.7485C100.597 75.5158 102.417 75.016 103.649 73.7256C103.796 73.5724 104.106 73.2579 103.995 72.9895C103.075 70.9068 101.364 69.5007 99.6785 68.0379C97.799 66.4117 95.944 64.7532 94.1054 63.0786C90.3798 59.6803 86.7522 56.1691 83.2143 52.5691C82.4407 51.7855 79.3843 52.9185 80.2303 53.8081C83.6062 57.3583 87.0883 60.7956 90.6765 64.1281C92.4504 65.7699 94.2489 67.3875 96.0718 68.9809C97.7335 70.4192 99.6712 71.8186 100.591 73.8769L100.936 73.1408C100.03 74.0925 98.4981 73.9531 97.2809 74.0673L91.9253 74.5612C88.2899 74.8956 84.6464 75.238 81.0111 75.5723C80.3944 75.6252 79.1837 75.999 79.0575 76.7284C78.923 77.4983 80.0664 77.5136 80.537 77.4759L80.5126 77.4839Z" fill="#8120D5"/>
</g>
<defs>
<clipPath id="clip0_408_1868">
<rect width="104" height="77" fill="white" transform="translate(0.479736) rotate(0.356921)"/>
</clipPath>
</defs>
</svg>
