<svg width="30" height="24" viewBox="0 0 30 24" fill="none" xmlns="http://www.w3.org/2000/svg">
<g clip-path="url(#clip0_408_1348)">
<path d="M2.44859 15.3673C6.18313 10.2901 10.1297 5.37593 14.2339 0.586799C14.5492 0.21715 13.9621 0.0160172 13.6903 -0.000290792C13.2065 -0.0274709 12.69 0.184534 12.3747 0.543311C8.20532 5.28895 4.27509 10.2412 0.529674 15.3238C0.236129 15.7207 0.77973 15.9109 1.08958 15.9272C1.55164 15.949 2.16591 15.7533 2.44859 15.3673Z" fill="#8120D5"/>
<path d="M8.02628 18.6021C10.2877 17.1235 12.549 15.6449 14.805 14.1608C15.0714 13.9869 15.3975 13.6009 14.9789 13.3889C14.5604 13.1769 13.9298 13.3454 13.571 13.5737C11.2988 15.0469 9.03195 16.5201 6.75969 17.9987C6.48789 18.178 6.15086 18.5749 6.58031 18.7923C7.00975 19.0098 7.65664 18.8412 8.02085 18.6021H8.02628Z" fill="#8120D5"/>
<path d="M13.2939 23.9293C18.5124 22.2115 23.7364 20.5046 28.955 18.7705C29.2431 18.6781 29.9335 18.4281 29.8193 18.0041C29.7106 17.6018 28.955 17.6833 28.6886 17.7703C23.4646 19.4718 18.2461 21.1896 13.0221 22.9074C12.7285 23.0052 12.0218 23.2553 12.1414 23.6901C12.2501 24.0978 13.0221 24.0163 13.2993 23.9239L13.2939 23.9293Z" fill="#8120D5"/>
</g>
<defs>
<clipPath id="clip0_408_1348">
<rect width="29.3817" height="24" fill="white" transform="translate(0.448486)"/>
</clipPath>
</defs>
</svg>
