<svg width="71" height="42" viewBox="0 0 71 42" fill="none" xmlns="http://www.w3.org/2000/svg">
<g clip-path="url(#clip0_408_1353)">
<path d="M2.61962 24.8176C4.85257 28.3478 7.40428 31.6343 10.1963 34.736C10.8977 35.5105 12.5379 34.3013 12.6331 33.4993C13.0254 30.3318 13.3868 27.1584 13.7637 23.988L11.3134 25.2285C12.2408 27.036 13.169 28.8726 14.4799 30.4328C15.0184 31.0705 15.5722 31.7111 16.4791 31.6597C17.386 31.6084 18.3701 30.9501 18.8568 30.1618C19.3124 29.4189 19.3799 28.493 19.5081 27.6525C19.6668 26.635 19.7995 25.6031 19.8982 24.5806C20.0979 22.4914 20.2174 20.3515 20.0768 18.2487C20.0056 17.1938 17.5834 18.4045 17.5816 19.3045C17.5613 22.5204 17.4812 25.6802 16.9699 28.8666C16.9127 29.2338 16.8594 29.6145 16.7645 29.9777C16.6521 30.3824 16.4792 30.3654 17.207 30.0428C18.1082 29.6347 17.7584 29.9236 17.5079 29.658C16.9981 29.1219 16.5242 28.583 16.0958 27.9728C15.1766 26.6602 14.4434 25.2293 13.7121 23.8051C13.4795 23.3443 12.6172 23.6829 12.3229 23.8319C11.8437 24.0769 11.3331 24.4698 11.2617 25.0457C10.8849 28.2161 10.4993 31.3817 10.1446 34.5532L12.5814 33.3164C9.74481 30.2639 7.22225 26.9252 4.97281 23.4143C4.45133 22.6037 2.11551 24.0166 2.61962 24.8176Z" fill="#8120D5"/>
<path d="M26.9713 16.2501C25.2304 18.4749 23.9471 21.5431 24.1811 24.4167C24.2882 25.7539 24.8196 27.1175 26.0113 27.8412C27.2029 28.565 28.5835 28.4821 29.8237 28.1611C32.5857 27.4541 35.1246 25.3622 36.5114 22.8937C37.6631 20.8353 38.7088 17.0811 36.2523 15.5299C34.9537 14.7121 33.256 14.8114 31.8692 15.3127C30.0267 15.9867 28.5281 17.3607 27.2362 18.7932C26.9423 19.1249 26.6921 19.7147 27.2939 19.8519C27.8957 19.989 28.6338 19.4954 29.042 19.1022C30.3683 17.7915 31.9492 16.036 33.9661 17.1702C35.8701 18.2412 35.2175 21.1604 34.4345 22.7637C34.0211 23.6044 33.4039 24.4222 32.736 25.035C32.0681 25.6478 31.3988 26.1001 30.5881 26.3364C29.7144 26.5832 28.8001 26.5563 28.0312 26.0349C27.1263 25.4202 26.7798 24.2969 26.7056 23.2575C26.5306 20.6964 27.6328 18.0743 29.1845 16.0857C29.5512 15.6238 29.19 15.1993 28.6718 15.2287C27.9815 15.2701 27.3721 15.7274 26.9626 16.2453L26.9713 16.2501Z" fill="#8120D5"/>
<path d="M39.3912 15.1479C41.2008 18.0079 43.1693 20.7572 45.2967 23.3958C45.914 24.1574 47.61 23.0422 47.8035 22.3294C48.5522 19.5951 49.0256 16.7922 49.2371 13.9683L46.8404 15.3985C49.1166 16.7519 51.7326 22.4408 54.7477 18.8762C57.499 15.6201 56.0227 11.1961 57.0829 7.41586C57.2539 6.80449 56.5948 6.74933 56.1624 6.84953C55.5588 6.99077 54.8779 7.45368 54.6431 8.04649C53.8998 9.94565 54.0425 12.0041 53.992 14.0001C53.9444 15.6954 53.7568 17.6204 52.5253 18.9043L54.3643 18.1143C53.1817 17.9145 52.3773 17.0082 51.6424 16.1409C50.8631 15.2202 50.0966 14.2667 49.0429 13.6429C48.2429 13.1669 46.7095 14.2362 46.6461 15.0731C46.4456 17.755 45.9862 20.4003 45.2776 22.9917L47.7844 21.9253C45.659 19.2934 43.6905 16.5442 41.8789 13.6774C41.3373 12.8213 38.8553 14.3121 39.3882 15.1634L39.3912 15.1479Z" fill="#8120D5"/>
<path d="M61.7022 2.46214L62.4469 10.0178C62.6898 12.5086 62.77 15.0966 63.244 17.5514C63.4533 18.6549 65.7569 17.3608 65.7459 16.4937C65.7158 13.9793 65.2934 11.4222 65.0467 8.91785L64.3019 1.3622C64.194 0.281162 61.6114 1.49329 61.7022 2.46214Z" fill="#8120D5"/>
<path d="M65.367 25.4563C65.6999 25.3403 66.0011 25.1382 66.2801 24.9351C66.4555 24.8051 66.6183 24.6568 66.7551 24.4938C67.0073 24.1959 67.2345 23.8611 67.3217 23.4709C67.3835 23.1975 67.421 22.9163 67.3513 22.6435C67.3073 22.4877 67.2682 22.3233 67.1922 22.1839C67.1163 22.0444 66.9881 21.9271 66.8686 21.8146L66.658 21.7424C66.5121 21.7178 66.3739 21.7203 66.2317 21.7605C65.9309 21.8089 65.656 21.9231 65.3926 22.0779C64.4059 22.6491 63.5048 23.6788 63.5051 24.8707C63.5034 25.0978 63.707 25.2231 63.9012 25.2634C64.0384 25.2831 64.1766 25.2806 64.314 25.2491C64.4774 25.2322 64.6399 25.1863 64.788 25.1152C65.1133 24.9722 65.4454 24.776 65.6763 24.506L65.8655 24.2698C65.9587 24.1337 66.0123 23.987 66.0157 23.8178C66.0227 23.7647 66.0296 23.7115 66.0365 23.6584L66.002 23.8729C66.0365 23.6584 66.1087 23.4479 66.2069 23.2519L66.0911 23.4894C66.1505 23.3629 66.2272 23.2462 66.3145 23.1411L66.1205 23.3861C66.1913 23.3002 66.2621 23.2144 66.3503 23.1383L66.0895 23.3802C66.1593 23.3166 66.231 23.2598 66.3095 23.201L65.9918 23.4224C66.0402 23.3868 66.0906 23.3579 66.1477 23.3272L64.5292 23.448C64.6612 23.5788 64.7497 23.7367 64.7994 23.9128L64.7439 23.7164C64.7937 23.8924 64.8028 24.08 64.7723 24.2568L64.8116 24.0336C64.7899 24.1641 64.746 24.2935 64.6935 24.418L64.8141 24.1719C64.7771 24.2481 64.7315 24.3195 64.6839 24.3841L64.8828 24.1305C64.845 24.1778 64.8004 24.2269 64.7538 24.2693L65.0146 24.0275C64.9797 24.0593 64.9448 24.0911 64.9012 24.118L65.2257 23.8947C65.1889 23.9197 65.157 23.9361 65.1202 23.9611L65.4716 23.7814C65.4261 23.8015 65.3806 23.8217 65.3351 23.8419C65.1512 23.9158 64.9818 24.0148 64.8248 24.1323C64.6689 24.2275 64.5274 24.3479 64.3984 24.4867C64.2821 24.5927 64.2005 24.7181 64.1382 24.86C64.0732 24.9661 64.0409 25.085 64.0396 25.2096L64.095 25.406C64.1826 25.5349 64.3042 25.6029 64.4569 25.6256C64.7776 25.6739 65.0853 25.5724 65.3844 25.466L65.367 25.4563Z" fill="#8120D5"/>
</g>
<defs>
<clipPath id="clip0_408_1353">
<rect width="65.7634" height="24.1027" fill="white" transform="translate(0.854736 18.647) rotate(-15.7726)"/>
</clipPath>
</defs>
</svg>
