<svg width="200" height="200" viewBox="0 0 200 200" fill="none" xmlns="http://www.w3.org/2000/svg">
<path d="M23 172L16 93L23 69L58 29L93 14L135 18L163 41L179 60V79L116 148L75 182L45 188L23 172Z" fill="white"/>
<path d="M74.269 146.14H48.2144V96.2866C48.2144 65.8466 72.9809 41.0825 103.427 41.0825C118.266 41.0825 132.19 46.8858 142.639 57.4223L124.135 75.7665C118.619 70.2006 111.262 67.1366 103.427 67.1366C87.3492 67.1366 74.269 80.214 74.269 96.2876V146.14Z" fill="#8D12DD"/>
<path d="M119.737 96.2864C119.737 105.292 112.431 112.594 103.426 112.594C94.4186 112.594 87.1157 105.292 87.1157 96.2864C87.1157 87.2803 94.4186 79.9805 103.426 79.9805C112.431 79.9805 119.737 87.2803 119.737 96.2864Z" fill="#8D12DD"/>
<path d="M53.9836 200C42.8956 200 32.1171 196.063 23.6371 188.915C13.9472 180.745 8.04959 169.301 7.04113 156.695L7 155.655V96.2854C7 43.1936 50.2047 0 103.308 0C129.188 0 153.476 10.1202 171.7 28.4972L171.879 28.6854C173.656 30.5468 189.288 47.3769 191.665 64.6089C193.5 77.9052 189.668 91.0946 181.408 99.8931L181.047 100.267L178.78 102.483L86.6153 186.969L84.3692 188.879C75.8512 196.063 65.0757 200 53.9836 200ZM33.0618 155.072C33.6128 160.512 36.2198 165.443 40.4356 168.998C44.2773 172.236 48.9618 173.946 53.9846 173.946C59.0085 173.946 63.6941 172.236 67.5377 168.998L69.3727 167.436L161.006 83.432L162.547 81.9138C165.294 78.8601 166.592 73.4967 165.854 68.1714C164.89 61.1892 156.762 50.6157 153.102 46.7458C139.823 33.4022 122.143 26.053 103.31 26.053C64.573 26.053 33.0628 57.5599 33.0628 96.2854V155.072H33.0618Z" fill="#8D12DD"/>
<path d="M53.9836 200C42.8956 200 32.1171 196.063 23.6371 188.915C13.9472 180.745 8.04959 169.301 7.04113 156.695L7 155.655V96.2854C7 43.1936 50.2047 0 103.308 0C129.188 0 153.476 10.1202 171.7 28.4972L171.879 28.6854C173.656 30.5468 189.288 47.3769 191.665 64.6089C193.5 77.9052 189.668 91.0946 181.408 99.8931L181.047 100.267L178.78 102.483L86.6153 186.969L84.3692 188.879C75.8512 196.063 65.0757 200 53.9836 200ZM33.0618 155.072C33.6128 160.512 36.2198 165.443 40.4356 168.998C44.2773 172.236 48.9618 173.946 53.9846 173.946C59.0085 173.946 63.6941 172.236 67.5377 168.998L69.3727 167.436L161.006 83.432L162.547 81.9138C165.294 78.8601 166.592 73.4967 165.854 68.1714C164.89 61.1892 156.762 50.6157 153.102 46.7458C139.823 33.4022 122.143 26.053 103.31 26.053C64.573 26.053 33.0628 57.5599 33.0628 96.2854V155.072H33.0618Z" fill="#8D12DD"/>
</svg>
