<svg width="165" height="50" viewBox="0 0 165 50" fill="none" xmlns="http://www.w3.org/2000/svg">
<g clip-path="url(#clip0_108_3476)">
<path fill-rule="evenodd" clip-rule="evenodd" d="M31.1477 9.09521H42.1329H42.2974V9.25972V12.9702V13.1347H42.1329H35.2603V20.4094H40.6523H40.8168V20.5739V24.2844V24.4489H40.6523H35.2603V35.233V35.3975H35.0775H31.1477H30.9832V35.233V9.25972V9.09521H31.1477Z" fill="white"/>
<path fill-rule="evenodd" clip-rule="evenodd" d="M45.1674 9.09521H49.1155H49.28V9.25972V31.3581H56.1161H56.2806V31.5226V35.233V35.3975H56.1161H45.1674H45.0029V35.233V9.25972V9.09521H45.1674Z" fill="white"/>
<path fill-rule="evenodd" clip-rule="evenodd" d="M65.1266 35.7816C63.2805 35.7816 61.7634 35.1967 60.5936 34.0452C60.0087 33.4603 59.57 32.8022 59.2775 32.0346C58.9851 31.2852 58.8389 30.4444 58.8389 29.5122V9.07715H63.116V29.5122C63.116 29.8595 63.1708 30.1702 63.2622 30.4444C63.3536 30.7185 63.4998 30.9379 63.6826 31.1389C63.8654 31.34 64.0847 31.4679 64.3223 31.5776C64.5599 31.669 64.8341 31.7238 65.1448 31.7238C65.748 31.7238 66.2233 31.5228 66.6071 31.1389C66.7899 30.9561 66.9361 30.7185 67.0275 30.4444C67.1189 30.1702 67.1737 29.8595 67.1737 29.5122V9.07715H71.3777V29.5122C71.3777 30.4444 71.2315 31.2669 70.9573 32.0346C70.6649 32.784 70.2445 33.4603 69.6596 34.0452C69.0929 34.6301 68.4166 35.0687 67.6672 35.3429C66.9178 35.6354 66.077 35.7816 65.1631 35.7816H65.1266Z" fill="white"/>
<path fill-rule="evenodd" clip-rule="evenodd" d="M75.3439 9.09521H86.4936H86.6764V9.25972V12.9702V13.1347H86.4936H79.4382V20.0256H85.0131H85.1959V20.2084V23.9188V24.0833H85.0131H79.4382V31.3581H86.4936H86.6764V31.5226V35.233V35.3975H86.4936H75.3439H75.1611V35.233V9.25972V9.09521H75.3439Z" fill="white"/>
<path fill-rule="evenodd" clip-rule="evenodd" d="M89.8024 9.09521H94.1527H94.2806L94.3172 9.22316L98.9781 25.4908V9.25972V9.09521H99.1609H103.018H103.182V9.25972V35.233V35.3975H103.018H98.8502H98.7405L98.6857 35.2879L93.8419 19.7331V35.233V35.3975H93.6591H89.8024H89.6379V35.233V9.25972V9.09521H89.8024Z" fill="white"/>
<path fill-rule="evenodd" clip-rule="evenodd" d="M113.144 35.7817C112.211 35.7817 111.352 35.6355 110.603 35.343C109.835 35.0506 109.159 34.6119 108.574 34.027C107.404 32.8572 106.819 31.3218 106.819 29.4575V15.0542C106.819 13.1716 107.404 11.6545 108.574 10.4847C109.744 9.31488 111.279 8.72998 113.144 8.72998C115.008 8.72998 116.543 9.31488 117.713 10.4847C118.298 11.0696 118.737 11.7459 119.029 12.5136C119.322 13.2813 119.468 14.122 119.468 15.0542V18.2712H115.264V15.0542C115.264 14.7069 115.209 14.3962 115.118 14.1038C115.026 13.8296 114.88 13.592 114.679 13.3909C114.478 13.1899 114.259 13.0254 114.021 12.934C113.765 12.8243 113.491 12.7877 113.18 12.7877C112.869 12.7877 112.577 12.8426 112.339 12.934C112.083 13.0436 111.864 13.1899 111.681 13.3909C111.48 13.592 111.334 13.8296 111.243 14.1038C111.151 14.3779 111.096 14.6887 111.096 15.0542V29.4575C111.096 29.8047 111.151 30.1155 111.243 30.4079C111.334 30.6821 111.48 30.9197 111.681 31.1208C111.882 31.3218 112.102 31.4863 112.339 31.5777C112.595 31.6874 112.869 31.7239 113.18 31.7239C113.491 31.7239 113.783 31.6691 114.021 31.5777C114.277 31.4681 114.496 31.3218 114.679 31.1208C114.88 30.9197 115.026 30.6821 115.118 30.4079C115.209 30.1337 115.264 29.823 115.264 29.4575V25.5825H119.468V29.4575C119.468 31.3401 118.883 32.8572 117.713 34.027C117.128 34.6119 116.452 35.0506 115.684 35.343C114.917 35.6355 114.076 35.7817 113.144 35.7817Z" fill="white"/>
<path fill-rule="evenodd" clip-rule="evenodd" d="M122.904 9.09521H134.072H134.237V9.25972V12.9702V13.1347H134.072H126.999V20.0256H132.574H132.756V20.2084V23.9188V24.0833H132.574H126.999V31.3581H134.072H134.237V31.5226V35.233V35.3975H134.072H122.904H122.722V35.233V9.25972V9.09521H122.904Z" fill="white"/>
<path fill-rule="evenodd" clip-rule="evenodd" d="M150.449 35.1782L147.178 23.6995C147.58 23.4436 147.945 23.1511 148.256 22.8039C148.603 22.4383 148.896 22.0179 149.133 21.5427C149.371 21.0674 149.554 20.5739 149.682 20.0256C149.81 19.4955 149.865 18.9106 149.865 18.3074V15.456C149.865 14.4873 149.718 13.6282 149.444 12.8605C149.152 12.0928 148.731 11.4165 148.146 10.8316C147.58 10.2467 146.904 9.80806 146.136 9.53389C145.368 9.24144 144.509 9.09521 143.54 9.09521H137.216V35.4158H141.493V24.6865H143.23L146.044 35.2879L146.081 35.4158H150.523L150.468 35.1965L150.449 35.1782ZM145.587 18.3805C145.587 19.0934 145.386 19.66 145.003 20.0439C144.619 20.4277 144.07 20.6288 143.339 20.6288H141.475V13.1347H143.339C143.705 13.1347 144.016 13.1895 144.308 13.2809C144.582 13.3723 144.82 13.5185 145.003 13.7196C145.386 14.1034 145.587 14.6518 145.587 15.3829V18.3805Z" fill="white"/>
<path fill-rule="evenodd" clip-rule="evenodd" d="M158.967 35.7817C158.327 35.7817 157.742 35.7086 157.176 35.5806C156.609 35.4344 156.079 35.2334 155.586 34.9592C155.092 34.685 154.653 34.3377 154.269 33.9539C153.886 33.57 153.557 33.1314 153.282 32.6196C153.008 32.1261 152.807 31.596 152.661 31.0294C152.533 30.4628 152.46 29.8596 152.46 29.2381V28.1597H152.606L156.39 27.7393H156.573V27.9038V28.8726C156.573 29.7682 156.792 30.481 157.194 30.9928C157.596 31.4863 158.181 31.7422 158.912 31.7422C159.278 31.7422 159.607 31.6874 159.881 31.5777C160.155 31.4681 160.411 31.3218 160.63 31.1208C160.831 30.9197 160.996 30.6821 161.106 30.3896C161.215 30.1155 161.27 29.7865 161.27 29.4209C161.27 28.6167 161.032 27.8307 160.575 27.0996C160.338 26.734 159.991 26.277 159.515 25.747C159.04 25.2169 158.437 24.6137 157.724 23.9374C156.755 23.0235 155.933 22.1827 155.275 21.415C154.617 20.6474 154.105 19.9528 153.739 19.3313C153.374 18.7099 153.118 18.0701 152.935 17.3938C152.752 16.7176 152.661 16.0047 152.661 15.2736C152.661 14.2866 152.789 13.3909 153.063 12.5867C153.337 11.7824 153.758 11.0879 154.288 10.503C154.836 9.89979 155.494 9.46111 156.244 9.16866C156.993 8.87621 157.852 8.72998 158.784 8.72998C159.716 8.72998 160.575 8.87621 161.325 9.18694C162.074 9.47939 162.732 9.93634 163.281 10.5395C163.829 11.1427 164.231 11.8373 164.505 12.6415C164.779 13.4458 164.907 14.3414 164.907 15.3284V16.1509H164.761L160.978 16.5713H160.795V16.4068V15.6574C160.795 14.7069 160.612 13.9758 160.265 13.5006C160.1 13.263 159.899 13.0802 159.643 12.9705C159.406 12.8609 159.113 12.7877 158.802 12.7877C158.492 12.7877 158.199 12.8426 157.943 12.934C157.706 13.0254 157.505 13.1716 157.322 13.3544C157.157 13.5371 157.03 13.793 156.938 14.0672C156.847 14.3597 156.81 14.7069 156.81 15.0908C156.81 15.8768 157.048 16.6262 157.523 17.3573C157.761 17.7229 158.126 18.1798 158.601 18.7099C159.077 19.2582 159.662 19.8797 160.374 20.5742C161.343 21.543 162.166 22.4203 162.824 23.188C163.482 23.974 163.994 24.6686 164.359 25.2535C164.725 25.8566 164.981 26.4781 165.163 27.1544C165.346 27.8124 165.437 28.507 165.437 29.2198C165.437 30.481 165.163 31.6143 164.615 32.6013C164.067 33.5883 163.299 34.3743 162.312 34.9226C161.818 35.1968 161.288 35.4161 160.722 35.5441C160.155 35.6903 159.552 35.7452 158.93 35.7452L158.967 35.7817Z" fill="white"/>
<path fill-rule="evenodd" clip-rule="evenodd" d="M-7.47461 43.9517H3.21813L9.32305 50.4588V9.09521H13.9657L14.0023 9.22316L18.6815 25.4908V0.541016H-7.47461V43.9517ZM1.24409 9.09521H5.35668V35.4158H1.07959V9.09521H1.24409Z" fill="#AD9EF2"/>
<path fill-rule="evenodd" clip-rule="evenodd" d="M26.8153 0.541016H22.8672V9.09521V9.25972V15.255V35.233V35.3975H22.6844H18.5353H18.4073L18.3708 35.2879L13.5088 19.7331V28.5615V35.233V35.3975V43.9517H26.8153V0.541016Z" fill="#AD9EF2"/>
</g>
<defs>
<clipPath id="clip0_108_3476">
<rect width="165" height="49" fill="white" transform="translate(0 0.5)"/>
</clipPath>
</defs>
</svg>
