<svg width="1552" height="4392" viewBox="0 0 1552 4392" fill="none" xmlns="http://www.w3.org/2000/svg">
<g clip-path="url(#clip0_186_859)">
<g filter="url(#filter0_f_186_859)">
<path fill-rule="evenodd" clip-rule="evenodd" d="M272.329 536.592C360.917 525.988 439.067 592.408 515.49 662.613C631.526 769.209 827.764 830.691 819.529 1039.27C811.158 1251.26 587.202 1226.79 487.46 1372.51C394.201 1508.76 400.496 1834.57 272.329 1838.71C144.822 1842.83 140.086 1523.44 48.04 1386.7C-48.4339 1243.38 -270.746 1246.19 -265.801 1039.27C-260.801 830.02 -51.7091 824.782 64.0512 716.647C134.829 650.531 189.923 546.455 272.329 536.592Z" fill="#9E6EE6" fill-opacity="0.2"/>
<path fill-rule="evenodd" clip-rule="evenodd" d="M1245.17 -227.629C1337.77 -208.142 1396.61 -83.2601 1463.08 18.5038C1530.18 121.255 1623.22 209.96 1626.37 356.041C1629.57 504.18 1533.95 596.528 1478.17 716.957C1401.71 882.029 1373.69 1138.48 1245.17 1179.01C1111.02 1221.31 967.654 1079.28 893.067 901.459C826.578 742.943 887.495 544.084 899.983 356.041C910.351 199.92 890.313 28.0962 958.753 -87.6279C1029.06 -206.5 1142.04 -249.332 1245.17 -227.629Z" fill="#020009"/>
<path fill-rule="evenodd" clip-rule="evenodd" d="M464.817 -313.6C595.691 -321.3 759.245 -371.341 836.514 -207.538C913.19 -44.9915 793.633 167.217 786.448 368.227C780.071 546.633 873.467 749.102 797.513 883.579C721.184 1018.72 579.708 961.552 464.817 937.677C369.254 917.818 290.201 846.458 210.829 761.659C103.202 646.672 -48.6358 568.476 -68.1857 368.227C-88.5331 159.808 15.3973 -31.1808 120.322 -165.403C215.851 -287.605 341.013 -306.316 464.817 -313.6Z" fill="#FA75F8" fill-opacity="0.11"/>
<path fill-rule="evenodd" clip-rule="evenodd" d="M939.56 794.723C1035.61 800.516 1139.9 733.598 1216.3 823.959C1298.35 921.017 1312.78 1094.16 1326.68 1252.63C1343.69 1446.51 1389.1 1672.48 1303.33 1816.11C1216.77 1961.07 1064.66 1938.8 939.56 1900.89C837.485 1869.97 759.261 1758.2 694.819 1631.74C639.152 1522.5 618.165 1391.11 609.22 1252.63C598.842 1091.98 562.726 896.883 640.396 789.22C717.654 682.128 835.964 788.474 939.56 794.723Z" fill="#020009"/>
</g>
<g filter="url(#filter1_f_186_859)">
<path fill-rule="evenodd" clip-rule="evenodd" d="M93.8416 1617.53C182.429 1606.93 260.579 1673.35 337.002 1743.56C453.038 1850.15 649.277 1911.63 641.041 2120.22C632.671 2332.2 408.715 2307.74 308.972 2453.46C215.713 2589.71 222.008 2915.52 93.8416 2919.65C-33.6656 2923.77 -38.4018 2604.39 -130.448 2467.64C-226.921 2324.32 -449.233 2327.13 -444.289 2120.22C-439.289 1910.96 -230.197 1905.73 -114.436 1797.59C-43.6582 1731.47 11.4353 1627.4 93.8416 1617.53Z" fill="#9E6EE6" fill-opacity="0.35"/>
<path fill-rule="evenodd" clip-rule="evenodd" d="M1213.41 1612.46C1306.01 1631.95 1364.85 1756.83 1431.31 1858.6C1498.42 1961.35 1591.45 2050.05 1594.61 2196.13C1597.81 2344.27 1502.19 2436.62 1446.4 2557.05C1369.94 2722.12 1341.93 2978.57 1213.41 3019.1C1079.26 3061.4 935.89 2919.38 861.302 2741.55C794.813 2583.04 855.73 2384.18 868.218 2196.13C878.586 2040.01 858.548 1868.19 926.988 1752.47C997.291 1633.59 1110.28 1590.76 1213.41 1612.46Z" fill="#020009"/>
<path fill-rule="evenodd" clip-rule="evenodd" d="M885.321 921.985C1016.2 914.285 1179.75 864.244 1257.02 1028.05C1333.69 1190.59 1214.14 1402.8 1206.95 1603.81C1200.57 1782.22 1293.97 1984.69 1218.02 2119.16C1141.69 2254.3 1000.21 2197.14 885.321 2173.26C789.758 2153.4 710.705 2082.04 631.333 1997.24C523.706 1882.26 371.868 1804.06 352.318 1603.81C331.971 1395.39 435.901 1204.4 540.826 1070.18C636.356 947.98 761.518 929.268 885.321 921.985Z" fill="#FA75F8" fill-opacity="0.11"/>
<path fill-rule="evenodd" clip-rule="evenodd" d="M473.678 2370.05C569.723 2375.84 674.022 2308.93 750.415 2399.29C832.47 2496.34 846.898 2669.49 860.799 2827.96C877.806 3021.84 923.219 3247.81 837.446 3391.44C750.886 3536.39 598.779 3514.13 473.678 3476.22C371.603 3445.29 293.378 3333.53 228.937 3207.07C173.27 3097.82 152.282 2966.44 143.337 2827.96C132.96 2667.31 96.8439 2472.21 174.514 2364.55C251.771 2257.46 370.082 2363.8 473.678 2370.05Z" fill="#020009"/>
</g>
<g filter="url(#filter2_f_186_859)">
<path fill-rule="evenodd" clip-rule="evenodd" d="M487.119 2649.27C575.706 2638.67 653.857 2705.09 730.28 2775.3C846.315 2881.89 1042.55 2943.37 1034.32 3151.96C1025.95 3363.94 801.992 3339.48 702.249 3485.2C608.99 3621.44 615.285 3947.26 487.119 3951.39C359.612 3955.51 354.876 3636.13 262.83 3499.38C166.356 3356.06 -55.9557 3358.87 -51.0114 3151.96C-46.0112 2942.7 163.081 2937.46 278.841 2829.33C349.619 2763.21 404.713 2659.14 487.119 2649.27Z" fill="#9E6EE6" fill-opacity="0.15"/>
<path fill-rule="evenodd" clip-rule="evenodd" d="M1199.79 3290.89C1292.39 3310.37 1351.23 3435.26 1417.7 3537.02C1484.8 3639.77 1577.84 3728.48 1580.99 3874.56C1584.19 4022.69 1488.57 4115.04 1432.79 4235.47C1356.33 4400.54 1328.32 4657 1199.79 4697.52C1065.64 4739.82 922.276 4597.8 847.688 4419.97C781.2 4261.46 842.116 4062.6 854.604 3874.56C864.973 3718.44 844.934 3546.61 913.375 3430.89C983.677 3312.01 1096.67 3269.18 1199.79 3290.89Z" fill="#020009"/>
<path fill-rule="evenodd" clip-rule="evenodd" d="M1275.57 2288.78C1406.45 2281.08 1570 2231.04 1647.27 2394.84C1723.95 2557.39 1604.39 2769.6 1597.2 2970.61C1590.83 3149.01 1684.22 3351.48 1608.27 3485.96C1531.94 3621.1 1390.46 3563.93 1275.57 3540.06C1180.01 3520.2 1100.96 3448.84 1021.59 3364.04C913.958 3249.05 762.121 3170.86 742.571 2970.61C722.223 2762.19 826.154 2571.2 931.079 2436.98C1026.61 2314.78 1151.77 2296.06 1275.57 2288.78Z" fill="#FA75F8" fill-opacity="0.28"/>
<path fill-rule="evenodd" clip-rule="evenodd" d="M178.72 3589.23C274.765 3595.03 379.064 3528.11 455.457 3618.47C537.512 3715.53 551.94 3888.67 565.841 4047.14C582.848 4241.02 628.261 4466.99 542.488 4610.63C455.928 4755.58 303.821 4733.31 178.72 4695.41C76.6451 4664.48 -1.57957 4552.71 -66.0215 4426.25C-121.688 4317.01 -142.676 4185.62 -151.621 4047.14C-161.998 3886.49 -198.114 3691.39 -120.444 3583.73C-43.1868 3476.64 75.124 3582.99 178.72 3589.23Z" fill="#020009"/>
</g>
</g>
<defs>
<filter id="filter0_f_186_859" x="-665.882" y="-726.772" width="2692.33" height="3055.96" filterUnits="userSpaceOnUse" color-interpolation-filters="sRGB">
<feFlood flood-opacity="0" result="BackgroundImageFix"/>
<feBlend mode="normal" in="SourceGraphic" in2="BackgroundImageFix" result="shape"/>
<feGaussianBlur stdDeviation="200" result="effect1_foregroundBlur_186_859"/>
</filter>
<filter id="filter1_f_186_859" x="-844.37" y="508.813" width="2839.06" height="3395.7" filterUnits="userSpaceOnUse" color-interpolation-filters="sRGB">
<feFlood flood-opacity="0" result="BackgroundImageFix"/>
<feBlend mode="normal" in="SourceGraphic" in2="BackgroundImageFix" result="shape"/>
<feGaussianBlur stdDeviation="200" result="effect1_foregroundBlur_186_859"/>
</filter>
<filter id="filter2_f_186_859" x="-569.076" y="1875.61" width="2641.91" height="3248.09" filterUnits="userSpaceOnUse" color-interpolation-filters="sRGB">
<feFlood flood-opacity="0" result="BackgroundImageFix"/>
<feBlend mode="normal" in="SourceGraphic" in2="BackgroundImageFix" result="shape"/>
<feGaussianBlur stdDeviation="200" result="effect1_foregroundBlur_186_859"/>
</filter>
<clipPath id="clip0_186_859">
<rect width="1552" height="4392" rx="5" fill="white"/>
</clipPath>
</defs>
</svg>
