<svg width="32" height="32" viewBox="0 0 32 32" fill="none" xmlns="http://www.w3.org/2000/svg">
<path d="M17.3708 2.66669C18.8708 2.67069 19.6321 2.67869 20.2894 2.69735L20.5481 2.70669C20.8468 2.71735 21.1414 2.73069 21.4974 2.74669C22.9161 2.81335 23.8841 3.03735 24.7334 3.36669C25.6135 3.70535 26.3548 4.16402 27.0961 4.90402C27.7741 5.57055 28.2987 6.37681 28.6335 7.26669C28.9628 8.11602 29.1868 9.08402 29.2535 10.504C29.2695 10.8587 29.2828 11.1534 29.2935 11.4534L29.3015 11.712C29.3215 12.368 29.3295 13.1294 29.3321 14.6294L29.3335 15.624V17.3707C29.3367 18.3432 29.3265 19.3158 29.3028 20.288L29.2948 20.5467C29.2841 20.8467 29.2708 21.1414 29.2548 21.496C29.1881 22.916 28.9615 23.8827 28.6335 24.7334C28.2997 25.6237 27.7749 26.4302 27.0961 27.096C26.4294 27.7738 25.6232 28.2984 24.7334 28.6334C23.8841 28.9627 22.9161 29.1867 21.4974 29.2534C21.1811 29.2683 20.8646 29.2816 20.5481 29.2934L20.2894 29.3014C19.6321 29.32 18.8708 29.3294 17.3708 29.332L16.3761 29.3334H14.6308C13.6578 29.3367 12.6848 29.3265 11.7121 29.3027L11.4535 29.2947C11.1369 29.2827 10.8205 29.2689 10.5041 29.2534C9.08545 29.1867 8.11745 28.9627 7.26678 28.6334C6.37701 28.2992 5.57107 27.7745 4.90545 27.096C4.22685 26.4297 3.70175 25.6234 3.36678 24.7334C3.03745 23.884 2.81345 22.916 2.74678 21.496C2.73193 21.1796 2.7186 20.8632 2.70678 20.5467L2.70012 20.288C2.67555 19.3158 2.66444 18.3432 2.66678 17.3707V14.6294C2.66306 13.6568 2.67284 12.6843 2.69612 11.712L2.70545 11.4534C2.71612 11.1534 2.72945 10.8587 2.74545 10.504C2.81212 9.08402 3.03612 8.11735 3.36545 7.26669C3.70027 6.37589 4.22641 5.56939 4.90678 4.90402C5.57224 4.22599 6.37764 3.70134 7.26678 3.36669C8.11745 3.03735 9.08412 2.81335 10.5041 2.74669C10.8588 2.73069 11.1548 2.71735 11.4535 2.70669L11.7121 2.69869C12.6844 2.675 13.6569 2.66477 14.6295 2.66802L17.3708 2.66669ZM16.0001 9.33335C14.232 9.33335 12.5363 10.0357 11.2861 11.286C10.0358 12.5362 9.33345 14.2319 9.33345 16C9.33345 17.7681 10.0358 19.4638 11.2861 20.7141C12.5363 21.9643 14.232 22.6667 16.0001 22.6667C17.7682 22.6667 19.4639 21.9643 20.7142 20.7141C21.9644 19.4638 22.6668 17.7681 22.6668 16C22.6668 14.2319 21.9644 12.5362 20.7142 11.286C19.4639 10.0357 17.7682 9.33335 16.0001 9.33335ZM16.0001 12C16.5254 11.9999 17.0456 12.1033 17.5309 12.3042C18.0162 12.5052 18.4572 12.7998 18.8287 13.1711C19.2002 13.5425 19.4949 13.9834 19.696 14.4687C19.8971 14.9539 20.0007 15.4741 20.0008 15.9994C20.0009 16.5246 19.8975 17.0448 19.6966 17.5301C19.4956 18.0155 19.2011 18.4565 18.8297 18.828C18.4583 19.1995 18.0174 19.4942 17.5321 19.6953C17.0469 19.8964 16.5267 19.9999 16.0015 20C14.9406 20 13.9232 19.5786 13.173 18.8284C12.4229 18.0783 12.0015 17.0609 12.0015 16C12.0015 14.9392 12.4229 13.9217 13.173 13.1716C13.9232 12.4214 14.9406 12 16.0015 12M23.0014 7.33335C22.5594 7.33335 22.1355 7.50895 21.8229 7.82151C21.5104 8.13407 21.3348 8.55799 21.3348 9.00002C21.3348 9.44205 21.5104 9.86597 21.8229 10.1785C22.1355 10.4911 22.5594 10.6667 23.0014 10.6667C23.4435 10.6667 23.8674 10.4911 24.18 10.1785C24.4925 9.86597 24.6681 9.44205 24.6681 9.00002C24.6681 8.55799 24.4925 8.13407 24.18 7.82151C23.8674 7.50895 23.4435 7.33335 23.0014 7.33335Z" fill="white"/>
</svg>
