<svg width="928" height="200" viewBox="0 0 928 200" fill="none" xmlns="http://www.w3.org/2000/svg">
<path d="M257.823 71.1994H243.543C243.794 67.7695 244.462 64.6736 245.54 61.9662C246.753 58.9032 248.498 56.6111 250.877 54.9604C253.165 53.3682 256.3 52.5603 260.181 52.5603C264.054 52.5603 267.523 51.2734 270.205 48.8364C273.087 46.2174 274.61 42.7669 274.61 38.858C274.61 34.9531 273.089 31.5047 270.196 28.8713C267.512 26.4374 264.047 25.1536 260.18 25.1536C250.594 25.1536 242.266 27.3316 235.423 31.626C228.523 35.9573 223.253 42.0659 219.758 49.7831C216.9 56.0951 215.252 63.2839 214.849 71.1994L214.752 98.0634V160.72C214.752 166.023 217.076 169.351 219.019 171.208C221.718 173.785 225.106 175.146 228.818 175.146C234.184 175.146 237.517 172.941 239.37 171.09C241.219 169.237 243.429 165.935 243.429 160.72V98.0634H257.823C262.742 98.0634 265.881 95.9542 267.649 94.1863C270.187 91.6516 271.526 88.379 271.526 84.7229C271.526 80.9548 270.188 77.6194 267.643 75.0724C265.872 73.3065 262.733 71.1994 257.823 71.1994Z" fill="white"/>
<path d="M276.632 122.266C276.632 92.1841 298.176 68.4016 326.837 68.4016C338.017 68.4016 348.383 72.2643 356.717 78.5661C358.547 72.6714 364.035 68.4016 370.539 68.4016C378.467 68.4016 384.768 74.7034 384.768 82.6302V161.905C384.768 169.832 378.467 176.133 370.539 176.133C364.035 176.133 358.547 171.864 356.717 165.969C348.384 172.473 338.017 176.133 326.837 176.133C298.176 176.132 276.632 152.351 276.632 122.266ZM356.31 122.266C356.31 106.616 345.13 94.8268 330.901 94.8268C316.469 94.8268 305.29 106.616 305.29 122.266C305.29 138.122 316.47 149.708 330.901 149.708C345.13 149.708 356.31 138.122 356.31 122.266Z" fill="white"/>
<path d="M409.155 116.169C409.155 87.5083 429.685 68.4005 455.905 68.4005C482.126 68.4005 502.656 87.5083 502.656 116.169V161.903C502.656 169.831 496.355 176.132 488.427 176.132C480.5 176.132 474.198 169.831 474.198 161.903V115.152C474.198 101.94 466.068 94.8267 455.905 94.8267C445.742 94.8267 437.611 101.94 437.611 115.152V161.903C437.611 169.831 431.31 176.132 423.382 176.132C415.456 176.132 409.154 169.831 409.154 161.903L409.155 116.169Z" fill="white"/>
<path d="M536.19 139.341C539.851 139.341 542.492 140.561 544.728 142.391C548.997 145.845 552.045 150.724 558.55 150.724C562.412 150.724 565.664 147.471 565.664 143.61C565.664 137.106 558.55 135.071 550.217 132.226C538.427 128.161 523.995 122.673 523.995 100.722C523.995 83.0373 539.037 68.4016 558.55 68.4016C575.828 68.4016 593.105 78.3615 593.105 90.1521C593.105 97.4704 587.21 103.364 579.893 103.364C577.454 103.364 575.625 102.754 573.795 101.941C568.509 99.2979 564.851 93.8091 558.55 93.8091C554.688 93.8091 551.436 97.0613 551.436 100.923C551.436 106.615 558.752 108.445 567.289 111.289C579.486 115.152 594.12 121.045 594.12 142.592C594.12 160.886 578.468 176.131 558.55 176.131C540.052 176.131 522.979 164.748 522.979 152.552C522.979 145.236 528.873 139.341 536.19 139.341Z" fill="white"/>
<path d="M614.444 82.6291C614.444 74.7033 620.746 68.4005 628.673 68.4005C636.601 68.4005 642.902 74.7023 642.902 82.6291V129.381C642.902 142.593 651.033 149.707 661.195 149.707C671.36 149.707 679.49 142.592 679.49 129.381V82.6291C679.49 74.7033 685.792 68.4005 693.719 68.4005C701.647 68.4005 707.947 74.7023 707.947 82.6291V128.364C707.947 157.024 687.417 176.132 661.196 176.132C634.976 176.132 614.446 157.024 614.446 128.364V82.6291H614.444Z" fill="white"/>
<path d="M760.181 165.969C758.555 171.863 753.066 176.133 746.562 176.133C738.635 176.133 732.333 169.832 732.333 161.904V44.0106C732.333 36.0838 738.635 29.782 746.562 29.782C754.489 29.782 760.791 36.0828 760.791 44.0106V78.159C768.922 72.0618 779.084 68.4016 790.264 68.4016C818.925 68.4016 840.471 92.1841 840.471 122.266C840.471 152.351 818.925 176.132 790.264 176.132C778.881 176.132 768.515 172.473 760.181 165.969ZM811.81 122.266C811.81 106.616 800.631 94.8267 786.199 94.8267C772.174 94.8267 761.198 106.209 760.791 121.251V123.487C761.198 138.732 772.174 149.709 786.199 149.709C800.631 149.708 811.81 138.122 811.81 122.266Z" fill="white"/>
<path d="M869.94 139.341C873.6 139.341 876.242 140.561 878.478 142.391C882.746 145.845 885.796 150.724 892.3 150.724C896.162 150.724 899.414 147.471 899.414 143.61C899.414 137.106 892.3 135.071 883.966 132.226C872.177 128.161 857.745 122.673 857.745 100.722C857.745 83.0373 872.787 68.4016 892.3 68.4016C909.577 68.4016 926.855 78.3615 926.855 90.1521C926.855 97.4704 920.96 103.364 913.643 103.364C911.203 103.364 909.375 102.754 907.544 101.941C902.26 99.2979 898.601 93.8091 892.3 93.8091C888.438 93.8091 885.185 97.0613 885.185 100.923C885.185 106.615 892.502 108.445 901.04 111.289C913.237 115.152 927.871 121.045 927.871 142.592C927.871 160.886 912.219 176.131 892.301 176.131C873.804 176.131 856.73 164.748 856.73 152.552C856.729 145.236 862.623 139.341 869.94 139.341Z" fill="white"/>
<path d="M16 172L9 93L16 69L51 29L86 14L128 18L156 41L172 60V79L109 148L68 182L38 188L16 172Z" fill="white"/>
<path d="M67.269 146.14H41.2144V96.2866C41.2144 65.8466 65.9809 41.0825 96.4271 41.0825C111.266 41.0825 125.19 46.8858 135.639 57.4223L117.135 75.7665C111.619 70.2006 104.262 67.1366 96.4271 67.1366C80.3492 67.1366 67.269 80.214 67.269 96.2876V146.14Z" fill="#8D12DD"/>
<path d="M112.737 96.2864C112.737 105.292 105.431 112.594 96.4259 112.594C87.4186 112.594 80.1157 105.292 80.1157 96.2864C80.1157 87.2803 87.4186 79.9805 96.4259 79.9805C105.431 79.9805 112.737 87.2803 112.737 96.2864Z" fill="#8D12DD"/>
<path d="M46.9836 200C35.8956 200 25.1171 196.063 16.6371 188.915C6.94723 180.745 1.04959 169.301 0.0411287 156.695L0 155.655V96.2854C0 43.1936 43.2047 0 96.308 0C122.188 0 146.476 10.1202 164.7 28.4972L164.879 28.6854C166.656 30.5468 182.288 47.3769 184.665 64.6089C186.5 77.9052 182.668 91.0946 174.408 99.8931L174.047 100.267L171.78 102.483L79.6153 186.969L77.3692 188.879C68.8512 196.063 58.0757 200 46.9836 200ZM26.0618 155.072C26.6128 160.512 29.2198 165.443 33.4356 168.998C37.2773 172.236 41.9618 173.946 46.9846 173.946C52.0085 173.946 56.6941 172.236 60.5377 168.998L62.3727 167.436L154.006 83.432L155.547 81.9138C158.294 78.8601 159.592 73.4967 158.854 68.1714C157.89 61.1892 149.762 50.6157 146.102 46.7458C132.823 33.4022 115.143 26.053 96.31 26.053C57.573 26.053 26.0628 57.5599 26.0628 96.2854V155.072H26.0618Z" fill="#8D12DD"/>
<path d="M46.9836 200C35.8956 200 25.1171 196.063 16.6371 188.915C6.94723 180.745 1.04959 169.301 0.0411287 156.695L0 155.655V96.2854C0 43.1936 43.2047 0 96.308 0C122.188 0 146.476 10.1202 164.7 28.4972L164.879 28.6854C166.656 30.5468 182.288 47.3769 184.665 64.6089C186.5 77.9052 182.668 91.0946 174.408 99.8931L174.047 100.267L171.78 102.483L79.6153 186.969L77.3692 188.879C68.8512 196.063 58.0757 200 46.9836 200ZM26.0618 155.072C26.6128 160.512 29.2198 165.443 33.4356 168.998C37.2773 172.236 41.9618 173.946 46.9846 173.946C52.0085 173.946 56.6941 172.236 60.5377 168.998L62.3727 167.436L154.006 83.432L155.547 81.9138C158.294 78.8601 159.592 73.4967 158.854 68.1714C157.89 61.1892 149.762 50.6157 146.102 46.7458C132.823 33.4022 115.143 26.053 96.31 26.053C57.573 26.053 26.0628 57.5599 26.0628 96.2854V155.072H26.0618Z" fill="#8D12DD"/>
</svg>
