<svg width="24" height="25" viewBox="0 0 24 25" fill="none" xmlns="http://www.w3.org/2000/svg">
<path d="M4.53033 3.96967C4.23744 3.67678 3.76256 3.67678 3.46967 3.96967C3.17678 4.26256 3.17678 4.73744 3.46967 5.03033L4.53033 3.96967ZM19.4697 21.0303C19.7626 21.3232 20.2374 21.3232 20.5303 21.0303C20.8232 20.7374 20.8232 20.2626 20.5303 19.9697L19.4697 21.0303ZM14.5002 15.295C14.8088 15.0187 14.8351 14.5446 14.5589 14.2359C14.2826 13.9273 13.8085 13.901 13.4998 14.1773L14.5002 15.295ZM10.3227 11.0002C10.599 10.6915 10.5727 10.2174 10.2641 9.94115C9.95543 9.6649 9.48129 9.69117 9.20504 9.99981L10.3227 11.0002ZM19.1153 15.5421C18.8029 15.814 18.7701 16.2878 19.0421 16.6002C19.3141 16.9126 19.7878 16.9453 20.1002 16.6734L19.1153 15.5421ZM9.18831 5.19699C8.79307 5.32092 8.57313 5.74179 8.69705 6.13703C8.82098 6.53227 9.24185 6.75221 9.63709 6.62829L9.18831 5.19699ZM6.90354 7.93556C7.25269 7.71269 7.35505 7.24898 7.13218 6.89984C6.90931 6.5507 6.4456 6.44833 6.09646 6.6712L6.90354 7.93556ZM17.5515 18.5471C17.9064 18.3335 18.021 17.8727 17.8075 17.5177C17.5939 17.1628 17.1331 17.0482 16.7782 17.2618L17.5515 18.5471ZM3.46967 5.03033L19.4697 21.0303L20.5303 19.9697L4.53033 3.96967L3.46967 5.03033ZM8.25 12.5C8.25 14.5711 9.92893 16.25 12 16.25V14.75C10.7574 14.75 9.75 13.7426 9.75 12.5H8.25ZM12 16.25C12.96 16.25 13.8372 15.8883 14.5002 15.295L13.4998 14.1773C13.1012 14.534 12.5767 14.75 12 14.75V16.25ZM9.20504 9.99981C8.61169 10.6628 8.25 11.54 8.25 12.5H9.75C9.75 11.9233 9.96602 11.3988 10.3227 11.0002L9.20504 9.99981ZM2.32608 15.1636C4.2977 17.238 7.84898 20.25 12 20.25V18.75C8.51999 18.75 5.35328 16.1713 3.41334 14.1302L2.32608 15.1636ZM21.6739 9.83641C19.7023 7.76198 16.151 4.75 12 4.75V6.25C15.48 6.25 18.6467 8.82869 20.5867 10.8698L21.6739 9.83641ZM21.6739 15.1636C23.1087 13.654 23.1087 11.346 21.6739 9.83641L20.5867 10.8698C21.4711 11.8004 21.4711 13.1996 20.5867 14.1302L21.6739 15.1636ZM3.41334 14.1302C2.52889 13.1996 2.52889 11.8004 3.41334 10.8698L2.32608 9.83641C0.891307 11.346 0.891306 13.654 2.32608 15.1636L3.41334 14.1302ZM20.1002 16.6734C20.6921 16.1581 21.2202 15.6409 21.6739 15.1636L20.5867 14.1302C20.1602 14.5789 19.6662 15.0624 19.1153 15.5421L20.1002 16.6734ZM12 4.75C11.0225 4.75 10.0801 4.91736 9.18831 5.19699L9.63709 6.62829C10.4042 6.38776 11.1948 6.25 12 6.25V4.75ZM6.09646 6.6712C4.57051 7.64527 3.28015 8.83259 2.32608 9.83641L3.41334 10.8698C4.31512 9.92098 5.51237 8.8236 6.90354 7.93556L6.09646 6.6712ZM12 20.25C14.0476 20.25 15.9403 19.5165 17.5515 18.5471L16.7782 17.2618C15.3131 18.1433 13.6886 18.75 12 18.75V20.25Z" fill="white"/>
</svg>
